<?xml version="1.0" standalone="no"?>
<!DOCTYPE svg PUBLIC "-//W3C//DTD SVG 1.1//EN" "http://www.w3.org/Graphics/SVG/1.1/DTD/svg11.dtd" >
<svg xmlns="http://www.w3.org/2000/svg">
  <metadata>Created by iconfont</metadata>
  <defs>
  <font id="iconfont" horiz-adv-x="1024">
    <font-face
      font-family="iconfont"
      font-weight="400"
      font-stretch="normal"
      units-per-em="1024"
      ascent="896"
      descent="-128"
    />
      <missing-glyph />
      
      <glyph glyph-name="shutu1" unicode="&#59301;" d="M170.666667 384m-85.333334 0a85.333333 85.333333 0 1 1 170.666667 0 85.333333 85.333333 0 1 1-170.666667 0ZM512 618.666667m-64 0a64 64 0 1 1 128 0 64 64 0 1 1-128 0ZM512 149.333333m-64 0a64 64 0 1 1 128 0 64 64 0 1 1-128 0ZM512 384m-64 0a64 64 0 1 1 128 0 64 64 0 1 1-128 0ZM896 204.8m-42.666667 0a42.666667 42.666667 0 1 1 85.333334 0 42.666667 42.666667 0 1 1-85.333334 0ZM896 443.733333m-42.666667 0a42.666667 42.666667 0 1 1 85.333334 0 42.666667 42.666667 0 1 1-85.333334 0ZM896 324.266667m-42.666667 0a42.666667 42.666667 0 1 1 85.333334 0 42.666667 42.666667 0 1 1-85.333334 0ZM896 85.333333m-42.666667 0a42.666667 42.666667 0 1 1 85.333334 0 42.666667 42.666667 0 1 1-85.333334 0ZM896 563.2m-42.666667 0a42.666667 42.666667 0 1 1 85.333334 0 42.666667 42.666667 0 1 1-85.333334 0ZM896 682.666667m-42.666667 0a42.666667 42.666667 0 1 1 85.333334 0 42.666667 42.666667 0 1 1-85.333334 0ZM160 405.333333h362.666667v-42.666666h-362.666667zM522.666667 151.466667l-2.133334 10.666666h-10.666666c-17.066667 0-106.666667-2.133333-160 78.933334-55.466667 83.2-130.133333 132.266667-157.866667 149.333333-2.133333 2.133333-6.4 4.266667-6.4 4.266667l-8.533333 17.066666L149.333333 358.4h14.933334c10.666667-6.4 91.733333-53.333333 151.466666-140.8 59.733333-89.6 157.866667-96 185.6-96h6.4l19.2-19.2-4.266666 49.066667zM539.733333 640h-10.666666c-29.866667 2.133333-134.4 0-198.4-96-61.866667-91.733333-153.6-140.8-153.6-140.8l-10.666667-4.266667 21.333333-38.4 8.533334 4.266667s98.133333 53.333333 168.533333 155.733333c53.333333 78.933333 142.933333 78.933333 162.133333 78.933334h10.666667l2.133333 32V640zM514.133333 373.333333l-2.133333 21.333334c2.133333 0 162.133333 23.466667 228.266667 42.666666 68.266667 21.333333 153.6 17.066667 157.866666 17.066667v-21.333333s-87.466667 2.133333-151.466666-17.066667c-68.266667-19.2-226.133333-42.666667-232.533334-42.666667zM883.2 307.2c-27.733333 0-91.733333 2.133333-145.066667 17.066667-64 19.2-226.133333 42.666667-228.266666 42.666666l2.133333 21.333334c6.4 0 164.266667-23.466667 230.4-42.666667 64-19.2 151.466667-17.066667 151.466667-17.066667v-21.333333h-10.666667zM522.666667 614.4l-2.133334 21.333333c2.133333 0 162.133333 23.466667 228.266667 42.666667 68.266667 21.333333 153.6 17.066667 157.866667 17.066667v-21.333334s-87.466667 2.133333-151.466667-17.066666c-68.266667-19.2-226.133333-42.666667-232.533333-42.666667zM891.733333 548.266667c-27.733333 0-91.733333 2.133333-145.066666 17.066666-64 19.2-226.133333 42.666667-228.266667 42.666667l2.133333 21.333333c6.4 0 164.266667-23.466667 230.4-42.666666 64-19.2 151.466667-17.066667 151.466667-17.066667v-21.333333h-10.666667zM514.133333 134.4l-2.133333 21.333333c2.133333 0 162.133333 23.466667 228.266667 42.666667 68.266667 21.333333 153.6 17.066667 157.866666 17.066667v-21.333334s-87.466667 2.133333-151.466666-17.066666c-68.266667-19.2-226.133333-40.533333-232.533334-42.666667zM883.2 68.266667c-27.733333 0-91.733333 2.133333-145.066667 17.066666-64 19.2-226.133333 42.666667-228.266666 42.666667l2.133333 21.333333c6.4 0 164.266667-23.466667 230.4-42.666666 64-19.2 149.333333-17.066667 151.466667-17.066667v-21.333333h-10.666667z"  horiz-adv-x="1024" />
      
      <glyph glyph-name="leidatu" unicode="&#59028;" d="M512 764.7232l426.8032-290.2016L775.9872-7.168H248.2176L85.1968 474.112 512 764.7232m0 53.6576l-477.7984-327.68 182.4768-541.0816h590.6432l182.4768 541.696L512 818.3808zM512 608.0512l261.3248-183.7056-99.7376-301.056H350.4128l-99.7376 300.6464L512 608.0512m0 53.6576l-312.5248-221.184 119.3984-360.6528h386.2528l119.3984 361.0624L512 661.7088zM512 713.1136L294.7072 365.568 729.088 18.0224 512 713.1136z"  horiz-adv-x="1024" />
      
      <glyph glyph-name="leidatu1" unicode="&#58916;" d="M508.5 14.9c-2.2 0-4.9 0.4-6.7 1.8L187.3 197.9c-4.5 2.2-6.7 6.7-6.7 11.6v364c0 4.9 2.2 8.9 6.7 11.6l314.5 181.3c4.5 2.2 8.9 2.2 13.4 0L829.7 585c4.5-2.2 6.7-6.7 6.7-11.6V210c0-4.9-2.2-8.9-6.7-11.6L515.2 16.6c-1.8-1.3-4.5-1.7-6.7-1.7zM207.4 217.5l301.1-173.7 301.1 173.7V565L508.5 738.7 207.4 565v-347.5z m0 0M505.8 684.4L753 530.7l-80.2-227.2-167-36.5-253.5-23.6L292 510.7l213.8 173.7z m0 0M505.8 570.8l160.4-93.1 73.5-214.3-233.9-93.1-160.3 133.2 20 167.5 140.3 99.8z m0 0"  horiz-adv-x="1024" />
      
      <glyph glyph-name="liandong" unicode="&#59104;" d="M447.829333 191.829333v64.170667h192.170667V832.170667H63.829333v-576.170667H256v-64.170667H0V896h704.170667v-704.170667zM575.829333 576.170667v-64.170667h-191.829333v-575.829333h575.829333V512H768V576.170667H1024V-128H319.829333V576.170667z"  horiz-adv-x="1024" />
      
      <glyph glyph-name="yinlitu" unicode="&#58915;" d="M887.619792 349.973758a135.85009 135.85009 0 0 1-75.82627-23.066479l-140.18302 152.926931a235.762351 235.762351 0 0 1 79.649443 175.993409 238.948329 238.948329 0 1 1-403.981974-171.59676L203.271778 331.749965a133.046429 133.046429 0 0 1-66.905532 18.223793 135.977529 135.977529 0 1 1 136.997042-135.977529 133.811064 133.811064 0 0 1-20.390257 70.664986l151.015343 160.318398a234.742838 234.742838 0 0 1 73.914683-23.576235v-280.366039a136.678444 136.678444 0 1 1 68.179923 0v280.366039a233.532167 233.532167 0 0 1 68.179924 20.199099l152.289734-166.116878a133.811064 133.811064 0 0 1-15.292693-61.48937 134.129662 134.129662 0 1 1 136.359847 135.977529z m-751.253546-203.902574A67.988764 67.988764 0 1 0 132.543073 281.984994h3.823173a67.988764 67.988764 0 1 0 0-135.977529z m205.176965 509.756435A170.768406 170.768406 0 1 0 512.311617 485.887567a170.386088 170.386088 0 0 0-170.768406 169.940052z m238.948329-645.733964a68.179923 68.179923 0 1 0-68.179923 68.052484 68.052484 68.052484 0 0 0 68.179923-68.052484z m307.128252 135.977529a67.988764 67.988764 0 1 0 68.817118 67.925045 68.116204 68.116204 0 0 0-68.817118-67.925045z m0 0"  horiz-adv-x="1024" />
      
      <glyph glyph-name="kebianji" unicode="&#58914;" d="M868.352 13.823999999999955c0-6.144-5.12-11.776-11.776-11.776H118.784c-6.144 0-11.776 5.12-11.776 11.776V743.936c0 6.144 5.12 11.776 11.776 11.776h539.648l0.512 41.472H91.648c-13.824 0-25.088-11.264-25.088-25.088v-785.92c0-13.824 11.264-25.088 25.088-25.088h791.552c13.824 0 25.088 11.264 25.088 25.088V429.568h-39.936v-415.744zM962.56 647.6800000000001c-1.536 20.48-15.872 34.816-19.968 38.4l-33.28 35.84-0.512 0.512-39.936 37.888h-0.512c-29.696 26.624-61.952 11.776-74.752 0l-0.512-0.512L720.896 686.08l-338.944-338.944h-0.512v-0.512l-1.536-1.536 0.512-0.512-93.184-240.64 242.688 88.576 1.024-1.024 1.536 1.536h0.512l350.72 351.232 62.976 62.976 0.512 0.512c13.824 15.36 15.872 30.208 15.36 39.936zM340.48 155.64800000000002L404.48 320l101.888-103.936-165.888-60.416z m190.464 79.36l-108.032 109.568 308.736 308.736 108.544-108.544-309.248-309.76z m393.728 394.24l-62.464-62.464-108.544 108.544 61.44 61.952c1.024 0.512 5.12 4.096 10.752 5.632 8.192 2.56 15.36 0.512 22.528-5.632l38.912-36.864 34.304-36.864 1.024-0.512s9.216-7.68 9.728-17.408c0-5.12-2.56-10.752-7.68-16.384z"  horiz-adv-x="1024" />
      
      <glyph glyph-name="kanban" unicode="&#59096;" d="M98.9952-128A99.072 99.072 0 0 0 0-29.0048V797.0048A99.072 99.072 0 0 0 98.9952 896h825.984A99.072 99.072 0 0 0 1024 797.0048v-826.0096A99.072 99.072 0 0 0 924.9792-128H98.9952z m25.856 947.2a48.1024 48.1024 0 0 1-48.0256-48.0512v-774.5536c0-26.496 21.5552-48.0512 48.0256-48.0512h774.528a48.1024 48.1024 0 0 1 48.0512 48.0512V771.1488a48.1024 48.1024 0 0 1-48.0512 48.0256H124.8512z m219.6992-394.112l-152.7296-169.728a23.7824 23.7824 0 0 0-33.7408-1.7408 23.8848 23.8848 0 0 0-1.792 33.7152l185.216 205.7472 202.7008-187.776 252.0832 280.064h-149.2224a23.9104 23.9104 0 0 0 0 47.8208H849.92c1.28 0 2.304-0.3072 3.072-0.512l1.4848-0.256c1.1008-0.1792 2.4576-0.3584 3.9168-0.9216 1.7664-0.6912 3.072-1.5872 4.224-2.3552 1.5104-0.8704 2.432-1.3312 3.3536-2.2016l0.4608-0.4352 0.512-0.7424c0.6912-0.4864 1.6384-1.92 2.3808-3.0976l-3.3792-4.096 4.0448 3.0976c0.512-0.64 1.1776-1.536 1.6896-2.688 0.512-1.1264 0.7168-2.2016 0.8704-3.0464l0.4096-1.7408a17.2544 17.2544 0 0 0 0.768-4.2752L873.7536 384a23.9104 23.9104 0 0 0-47.7696 0V547.072L547.3024 237.312l-202.752 187.7504z m-170.496-290.2784a23.9104 23.9104 0 0 0 0 47.8208H849.92a23.9104 23.9104 0 0 0 0-47.8208H174.08z"  horiz-adv-x="1024" />
      
      <glyph glyph-name="biaoge" unicode="&#58947;" d="M130.365503-126.36459C59.342003-126.36459 1.63541-68.657997 1.40178 2.365503L0 763.999087c0 34.3436 13.316906 66.818161 37.614419 91.115675C62.145562 879.645905 94.386493 893.196441 128.730094 893.430071L892.466347 894.83185c71.0235 0 128.730094-57.706594 128.963724-128.730093l1.401779-761.867214c0-34.3436-13.316906-66.818161-37.614419-91.115675-24.297513-24.531143-56.772074-38.081679-91.115674-38.081679l-763.736254-1.401779m0.23363 35.511749l763.502624 1.40178c24.764773 0 48.127766 9.812457 65.883641 27.568332 17.755875 17.755875 27.334702 41.118868 27.334702 65.883642L985.918321 765.868127c0 51.398585-42.053388 93.218344-93.451974 93.218343l-763.736253-1.401779c-24.764773 0-48.127766-9.812457-65.883642-27.568332-17.755875-17.755875-27.334702-41.118868-27.334702-65.883642l1.40178-761.867214c0.23363-51.398585 42.287018-93.218344 93.685603-93.218344M753.456537 685.966689M18.690395 557.002966h985.451061M18.690395 573.590691h985.451061v-33.17545H18.690395zM19.624914 211.230664h985.451061M19.624914 227.818389h985.451061v-33.17545H19.624914zM684.769336 877.309605v-985.451061M668.181611 877.309605h33.17545v-985.451061H668.181611zM338.997034 876.375086v-985.451061M322.409309 876.375086h33.17545v-985.451061H322.409309z"  horiz-adv-x="1024" />
      
      <glyph glyph-name="rili" unicode="&#58909;" d="M884.002502 746.876658 762.830769 746.876658 762.830769 802.800341c0 15.45397-12.518105 27.961842-27.958772 27.961842-15.440667 0-27.961842-12.506848-27.961842-27.961842l0-55.92266L539.14115 746.877681 539.14115 802.800341c0 15.45397-12.521175 27.961842-27.963888 27.961842-15.437597 0-27.958772-12.506848-27.958772-27.961842l0-55.92266L315.448462 746.877681 315.448462 802.800341c0 15.45397-12.521175 27.961842-27.961842 27.961842-15.440667 0-27.961842-12.506848-27.961842-27.961842l0-55.92266L138.354068 746.877681c-41.178865 0-74.559113-33.368992-74.559113-74.54581l0-661.767002c0-41.178865 33.380248-74.570369 74.559113-74.570369l745.648434 0c41.181935 0 74.562183 33.391505 74.562183 74.570369L958.564685 672.331871C958.564685 713.507666 925.184437 746.876658 884.002502 746.876658zM902.638955 10.564869c0-10.295484-8.355295-18.650779-18.636452-18.650779L138.354068-8.08591c-10.284227 0-18.636452 8.355295-18.636452 18.650779L119.717615 672.331871c0 10.267854 8.352225 18.622126 18.636452 18.622126L259.524778 690.953997l0-55.92266c0-15.45397 12.521175-27.961842 27.961842-27.961842 15.440667 0 27.961842 12.506848 27.961842 27.961842l0 55.92266 167.769005 0 0-55.92266c0-15.45397 12.521175-27.961842 27.958772-27.961842 15.442714 0 27.963888 12.506848 27.963888 27.961842l0 55.92266 167.769005 0 0-55.92266c0-15.45397 12.521175-27.961842 27.961842-27.961842 15.440667 0 27.958772 12.506848 27.958772 27.961842l0 55.92266 121.171734 0c10.281157 0 18.636452-8.355295 18.636452-18.622126L902.637931 10.564869zM259.524778 411.337625l111.843274 0 0 83.887572L259.524778 495.225197 259.524778 411.337625zM259.524778 271.530462l111.843274 0 0 83.887572L259.524778 355.418035 259.524778 271.530462zM259.524778 131.722276l111.843274 0 0 83.884502L259.524778 215.606779 259.524778 131.722276zM455.256648 131.722276l111.846344 0 0 83.884502L455.256648 215.606779 455.256648 131.722276zM455.256648 271.530462l111.846344 0 0 83.887572L455.256648 355.418035 455.256648 271.530462zM455.256648 411.337625l111.846344 0 0 83.887572L455.256648 495.225197 455.256648 411.337625zM650.987494 131.722276l111.843274 0 0 83.884502L650.987494 215.606779 650.987494 131.722276zM650.987494 271.530462l111.843274 0 0 83.887572L650.987494 355.418035 650.987494 271.530462zM650.987494 411.337625l111.843274 0 0 83.887572L650.987494 495.225197 650.987494 411.337625z"  horiz-adv-x="1024" />
      
      <glyph glyph-name="rili1" unicode="&#58911;" d="M421.647059 384l-57.223529 0 0-57.223529L421.647059 326.776471 421.647059 384zM876.423529 697.223529c16.564706 0 28.611765 12.047059 28.611765 28.611765L905.035294 867.388235c0 16.564706-12.047059 28.611765-28.611765 28.611765-16.564706 0-28.611765-12.047059-28.611765-28.611765l0-141.552941C847.811765 707.764706 859.858824 697.223529 876.423529 697.223529zM478.870588 697.223529c16.564706 0 28.611765 12.047059 28.611765 28.611765L507.482353 867.388235c0 16.564706-12.047059 28.611765-28.611765 28.611765-16.564706 0-28.611765-12.047059-28.611765-28.611765l0-141.552941C450.258824 707.764706 462.305882 697.223529 478.870588 697.223529zM790.588235 810.164706 563.2 810.164706l0-57.223529 227.388235 0L790.588235 810.164706zM1103.811765 810.164706l-141.552941 0 0-57.223529 170.164706 0 0-198.776471L221.364706 554.164706 221.364706 754.447059l170.164706 0L391.529412 810.164706l-141.552941 0C210.823529 810.164706 165.647059 766.494118 165.647059 727.341176l0-783.058824c0-40.658824 33.129412-72.282353 72.282353-72.282353l879.435294 0c39.152941 0 72.282353 33.129412 72.282353 72.282353l0 783.058824C1189.647059 766.494118 1144.470588 810.164706 1103.811765 810.164706zM1132.423529-72.282353 221.364706-72.282353 221.364706 496.941176l911.058824 0L1132.423529-72.282353zM591.811765 384l-57.223529 0 0-57.223529 57.223529 0L591.811765 384zM790.588235 384l-57.223529 0 0-57.223529 57.223529 0L790.588235 384zM990.870588 384 933.647059 384l0-57.223529 57.223529 0L990.870588 384zM421.647059 240.941176l-57.223529 0 0-57.223529L421.647059 183.717647 421.647059 240.941176zM591.811765 240.941176l-57.223529 0 0-57.223529 57.223529 0L591.811765 240.941176zM790.588235 240.941176l-57.223529 0 0-57.223529 57.223529 0L790.588235 240.941176zM990.870588 240.941176 933.647059 240.941176l0-57.223529 57.223529 0L990.870588 240.941176zM421.647059 99.388235l-57.223529 0 0-57.223529L421.647059 42.164706 421.647059 99.388235zM591.811765 99.388235l-57.223529 0 0-57.223529 57.223529 0L591.811765 99.388235zM790.588235 99.388235l-57.223529 0 0-57.223529 57.223529 0L790.588235 99.388235zM990.870588 99.388235 933.647059 99.388235l0-57.223529 57.223529 0L990.870588 99.388235z"  horiz-adv-x="1366" />
      
      <glyph glyph-name="digui" unicode="&#59166;" d="M380.586667 520.533333c25.6-141.653333 151.893333-250.88 302.08-250.88 170.666667 0 308.906667 138.24 308.906666 308.906667S853.333333 885.76 682.666667 885.76C532.48 885.76 407.893333 776.533333 380.586667 634.88h-273.066667V858.453333C107.52 880.64 90.453333 896 69.973333 896S32.426667 878.933333 32.426667 858.453333v-716.8c0-59.733333 47.786667-107.52 107.52-107.52h360.106666c10.24-90.453333 90.453333-162.133333 182.613334-162.133333 102.4 0 187.733333 83.626667 187.733333 187.733333s-83.626667 187.733333-187.733333 187.733334c-85.333333 0-157.013333-58.026667-179.2-136.533334H138.24c-17.066667 0-32.426667 13.653333-32.426667 32.426667V520.533333h274.773334z m300.373333-349.866666c61.44 0 112.64-49.493333 112.64-112.64 0-63.146667-49.493333-112.64-112.64-112.64-63.146667 0-112.64 49.493333-112.64 112.64v8.533333c0 1.706667 1.706667 3.413333 1.706667 5.12v1.706667c8.533333 56.32 56.32 97.28 110.933333 97.28z m0 638.293333c75.093333 0 139.946667-35.84 184.32-90.453333-11.946667 1.706667-23.893333-1.706667-32.426667-10.24L638.293333 512l-107.52 98.986667c-15.36 13.653333-39.253333 13.653333-52.906666-1.706667-13.653333-15.36-13.653333-39.253333 1.706666-52.906667l133.12-122.88c8.533333-5.12 15.36-10.24 25.6-10.24s20.48 3.413333 25.6 11.946667l221.866667 221.866667c3.413333 3.413333 5.12 10.24 8.533333 13.653333 11.946667-27.306667 20.48-59.733333 20.48-92.16 0-128-104.106667-233.813333-233.813333-233.813333s-233.813333 104.106667-233.813333 233.813333c3.413333 126.293333 107.52 230.4 233.813333 230.4z"  horiz-adv-x="1024" />
      
      <glyph glyph-name="rili2" unicode="&#58912;" d="M945.608861 797.58834h-139.668027V861.399624a32.3368 32.3368 0 0 1-64.45802 0v-63.811284H548.108752V861.399624a32.3368 32.3368 0 0 1-64.45802 0v-63.811284h-193.374061V861.399624a32.3368 32.3368 0 0 1-64.458021 0v-63.811284H86.231465A85.503887 85.503887 0 0 1 0.215579 712.488663v-755.360691A85.530835 85.530835 0 0 1 86.231465-127.998653h859.377396a85.530835 85.530835 0 0 1 85.935045 85.126625V712.488663a85.503887 85.503887 0 0 1-85.935045 85.099677z m21.557866-840.460368a21.396182 21.396182 0 0 0-21.557866-21.288393H86.231465a21.396182 21.396182 0 0 0-21.557866 21.288393V712.488663a21.396182 21.396182 0 0 0 21.557866 21.261445h139.587185V669.911876a32.3368 32.3368 0 0 1 64.458021 0V733.750108h193.374061V669.911876a32.3368 32.3368 0 0 1 64.45802 0V733.750108h193.374062V669.911876a32.3368 32.3368 0 0 1 64.45802 0V733.750108h139.668027a21.396182 21.396182 0 0 0 21.557866-21.261445v-755.360691zM225.81865 414.585897h128.916041v95.743874H225.81865v-95.743874z m0-159.582106h128.916041v95.743874H225.81865v-95.743874z m0-159.582106h128.916041v95.743874H225.81865v-95.743874z m225.603072 0h128.916041v95.743874h-128.916041v-95.743874z m0 159.582106h128.916041v95.743874h-128.916041v-95.743874z m0 159.582106h128.916041v95.743874h-128.916041v-95.743874z m225.603071-319.164212h128.916041v95.743874h-128.916041v-95.743874z m0 159.582106h128.916041v95.743874h-128.916041v-95.743874z m0 159.582106h128.916041v95.743874h-128.916041v-95.743874z"  horiz-adv-x="1050" />
      
      <glyph glyph-name="tuozhuai" unicode="&#58953;" d="M153.7536 407.6032h717.6192v-51.2H153.7536zM486.4512 741.9392h51.2v-717.7728h-51.2zM237.8752 263.4752L117.4016 384l120.4736 120.5248 36.2496-36.2496L189.7984 384l84.3264-84.2752zM786.1248 263.4752l-36.2496 36.2496L834.2016 384l-84.3264 84.2752 36.2496 36.2496L906.5984 384zM596.2752 621.8752L512 706.2016 427.7248 621.8752l-36.2496 36.2496L512 778.5984l120.5248-120.4736zM512-10.5984l-120.5248 120.4736 36.2496 36.2496L512 61.7984l84.2752 84.3264 36.2496-36.2496z"  horiz-adv-x="1024" />
      
      <glyph glyph-name="tuozhuai1" unicode="&#58936;" d="M1020.916 368.989c2 4.768 3.04 9.872 3.056 15.04 0 5.247-1.088 10.351-3.056 15.135a38.447 38.447 0 0 1-8.464 12.624l-162.54 162.54a39.2 39.2 0 0 1-55.407 0 39.231 39.231 0 0 1 0-55.423l95.678-95.678h-339V762.34l95.694-95.677a39.04 39.04 0 0 1 27.68-11.456 39.359 39.359 0 0 1 27.726 11.44 39.2 39.2 0 0 1 0 55.406L539.647 884.608c-1.792 1.872-4.064 2.72-6.176 4.144-2.127 1.408-4 3.2-6.431 4.24a39.455 39.455 0 0 1-30.176 0c-2.432-1.024-4.224-2.816-6.415-4.24-2.048-1.408-4.32-2.272-6.208-4.16L321.717 722.068a39.2 39.2 0 0 1 0-55.406 39.2 39.2 0 0 1 55.406 0l95.678 95.677v-339.096h-339l95.614 95.678c15.36 15.296 15.36 40.063 0 55.423a39.2 39.2 0 0 1-55.407 0L11.532 411.772a37.28 37.28 0 0 1-8.48-12.608 38.692 38.692 0 0 1-3.04-15.136 37.96 37.96 0 0 1 3.056-15.04 37.555 37.555 0 0 1 8.464-12.703l162.46-162.46a39.04 39.04 0 0 1 27.744-11.44c10.031 0 20.063 3.76 27.663 11.44 15.36 15.28 15.36 40.127 0 55.407l-95.63 95.613h339.032v-339.031l-95.678 95.613a39.071 39.071 0 0 1-55.422 0 39.215 39.215 0 0 1 0-55.422l162.476-162.46a39.457 39.457 0 0 1 12.847-8.464 37.887 37.887 0 0 1 29.856 0 38.3 38.3 0 0 1 12.847 8.464l162.556 162.46a39.215 39.215 0 0 1 0 55.422 39.071 39.071 0 0 1-55.422 0l-95.678-95.63V344.846H890.2l-95.678-95.613a39.215 39.215 0 0 1 0-55.407 39.04 39.04 0 0 1 27.727-11.44c10.032 0 20.064 3.76 27.68 11.44l162.524 162.46a38.849 38.849 0 0 1 8.464 12.704"  horiz-adv-x="1024" />
      
      <glyph glyph-name="tuozhuai2" unicode="&#58946;" d="M512 800v-832M512-60c-15.5 0-28 12.5-28 28V800c0 15.5 12.5 28 28 28s28-12.5 28-28v-832c0-15.5-12.5-28-28-28zM99 384h828M927 356H99c-15.5 0-28 12.5-28 28s12.5 28 28 28h828c15.5 0 28-12.5 28-28s-12.5-28-28-28zM222 255.6L92.4 385.2M222 227.6c-7.2 0-14.3 2.7-19.8 8.2L72.6 365.4c-10.9 10.9-10.9 28.7 0 39.6 10.9 10.9 28.7 10.9 39.6 0l129.6-129.6c10.9-10.9 10.9-28.7 0-39.6-5.5-5.5-12.6-8.2-19.8-8.2zM222 514.6L92.4 385M92.4 357c-7.2 0-14.3 2.7-19.8 8.2-10.9 10.9-10.9 28.7 0 39.6l129.6 129.6c10.9 10.9 28.7 10.9 39.6 0 10.9-10.9 10.9-28.7 0-39.6L112.2 365.2c-5.5-5.5-12.6-8.2-19.8-8.2zM801.4 255.6L931 385.2M801.4 227.6c-7.2 0-14.3 2.7-19.8 8.2-10.9 10.9-10.9 28.7 0 39.6L911.2 405c10.9 10.9 28.7 10.9 39.6 0 10.9-10.9 10.9-28.7 0-39.6L821.2 235.8c-5.5-5.5-12.6-8.2-19.8-8.2zM801.4 514.6L931 385M931 357c-7.2 0-14.3 2.7-19.8 8.2L781.6 494.8c-10.9 10.9-10.9 28.7 0 39.6 10.9 10.9 28.7 10.9 39.6 0l129.6-129.6c10.9-10.9 10.9-28.7 0-39.6-5.5-5.5-12.6-8.2-19.8-8.2zM382.5 673.7L512.1 803.3M382.5 645.7c-7.2 0-14.3 2.7-19.8 8.2-10.9 10.9-10.9 28.7 0 39.6L492.3 823.1c10.9 10.9 28.7 10.9 39.6 0 10.9-10.9 10.9-28.7 0-39.6L402.3 653.9c-5.4-5.5-12.6-8.2-19.8-8.2zM641.6 673.7L512 803.3M641.6 645.7c-7.2 0-14.3 2.7-19.8 8.2L492.2 783.5c-10.9 10.9-10.9 28.7 0 39.6 10.9 10.9 28.7 10.9 39.6 0l129.6-129.6c10.9-10.9 10.9-28.7 0-39.6-5.5-5.5-12.6-8.2-19.8-8.2zM382.5 94.3l129.6-129.6M512.1-63.3c-7.2 0-14.3 2.7-19.8 8.2L362.7 74.5c-10.9 10.9-10.9 28.7 0 39.6 10.9 10.9 28.7 10.9 39.6 0l129.6-129.6c10.9-10.9 10.9-28.7 0-39.6-5.4-5.5-12.6-8.2-19.8-8.2zM641.6 94.3L512-35.3M512-63.3c-7.2 0-14.3 2.7-19.8 8.2-10.9 10.9-10.9 28.7 0 39.6l129.6 129.6c10.9 10.9 28.7 10.9 39.6 0 10.9-10.9 10.9-28.7 0-39.6L531.8-55.1c-5.5-5.5-12.6-8.2-19.8-8.2z"  horiz-adv-x="1024" />
      
      <glyph glyph-name="biaodanliebiao-" unicode="&#58913;" d="M224-21.81818155999997h571.63636406c48 0 87.27272719 39.27272719 87.27272719 82.90909031v654.54545531c0 48-39.27272719 82.90909125-87.27272719 82.90909032H224c-48 0-87.27272719-39.27272719-87.27272719-82.90909032v-650.18181843c0-48 39.27272719-87.27272719 87.27272719-87.27272719zM197.81818156 715.63636406c0 13.09090875 13.09090875 26.18181844 26.18181844 26.1818175h571.63636406c13.09090875 0 26.18181844-13.09090875 26.1818175-26.1818175v-650.18181844c0-13.09090875-13.09090875-26.18181844-26.1818175-26.18181843H224c-13.09090875 0-26.18181844 13.09090875-26.18181844 26.18181843V715.63636406zM446.54545438 532.36363594H730.18181844c17.45454563 0 30.54545437 13.09090875 30.54545437 30.54545531s-13.09090875 30.54545437-30.54545437 30.54545438H446.54545438c-17.45454563 0-30.54545437-13.09090875-30.54545438-30.54545438s13.09090875-30.54545437 30.54545438-30.54545531zM446.54545438 375.27272718999996H730.18181844c17.45454563 0 30.54545437 13.09090875 30.54545437 30.54545437s-13.09090875 26.18181844-30.54545437 26.18181844H446.54545438c-17.45454563 0-30.54545437-13.09090875-30.54545438-30.54545438s17.45454563-26.18181844 30.54545438-26.18181843zM446.54545438 205.09090875000004H730.18181844c17.45454563 0 30.54545437 13.09090875 30.54545437 30.54545531 0 17.45454563-13.09090875 30.54545437-30.54545437 30.54545438H446.54545438c-17.45454563 0-30.54545437-13.09090875-30.54545438-30.54545438 4.36363594-17.45454563 17.45454563-30.54545437 30.54545438-30.54545531zM311.27272719 532.36363594H337.45454563c17.45454563 0 30.54545437 13.09090875 30.54545437 30.54545531s-17.45454563 26.18181844-30.54545438 26.1818175h-26.18181843c-17.45454563 0-30.54545437-13.09090875-30.54545438-26.1818175s13.09090875-30.54545437 30.54545438-30.54545531zM311.27272719 375.27272718999996H337.45454563c17.45454563 0 30.54545437 13.09090875 30.54545437 30.54545437s-13.09090875 26.18181844-30.54545438 26.18181844h-26.18181843c-17.45454563 0-30.54545437-13.09090875-30.54545438-30.54545438s13.09090875-26.18181844 30.54545438-26.18181843zM311.27272719 205.09090875000004H337.45454563c17.45454563 0 30.54545437 13.09090875 30.54545437 30.54545531 0 17.45454563-13.09090875 30.54545437-30.54545438 30.54545438h-26.18181843c-17.45454563 0-30.54545437-13.09090875-30.54545438-30.54545438 0-17.45454563 13.09090875-30.54545437 30.54545438-30.54545531z"  horiz-adv-x="1024" />
      
      <glyph glyph-name="biaodanliebiao" unicode="&#58935;" d="M147.748571-128h728.502858c61.147429 0 111.177143 49.005714 111.177142 103.497143V792.502857C987.428571 852.48 937.398857 896 876.251429 896H147.748571C86.601143 896 36.571429 846.994286 36.571429 792.502857V-19.017143C36.571429-78.994286 86.601143-128 147.748571-128zM114.395429 792.502857c0 16.384 16.676571 32.694857 33.353142 32.694857h728.502858c16.676571 0 33.353143-16.310857 33.353142-32.694857V-19.017143c0-16.310857-16.676571-32.621714-33.353142-32.621714H147.748571c-16.676571 0-33.353143 16.310857-33.353142 32.621714V792.502857zM458.166857 534.381714h345.746286c21.211429 0 37.229714 14.774857 37.229714 34.523429 0 19.748571-15.945143 34.523429-37.302857 34.523428H458.24c-21.284571 0-37.302857-14.774857-37.302857-34.523428 0-19.748571 16.018286-34.523429 37.302857-34.523429z m0-177.517714h345.746286c21.211429 0 37.229714 14.774857 37.229714 34.523429 0 19.748571-15.945143 29.622857-37.302857 29.622857H458.24c-21.284571 0-37.302857-14.848-37.302857-34.523429 0-19.748571 21.284571-29.622857 37.302857-29.622857z m0-192.292571h345.746286c21.211429 0 37.229714 14.774857 37.229714 34.523428 0 19.748571-15.945143 34.523429-37.302857 34.523429H458.24c-21.284571 0-37.302857-14.774857-37.302857-34.523429 5.339429-19.748571 21.284571-34.523429 37.302857-34.523428zM293.229714 534.381714h31.890286c21.284571 0 37.302857 14.774857 37.302857 34.523429 0 19.748571-21.284571 29.622857-37.302857 29.622857H293.302857c-21.211429 0-37.229714-14.848-37.229714-29.622857s15.945143-34.523429 37.302857-34.523429z m0-177.517714h31.890286c21.284571 0 37.302857 14.774857 37.302857 34.523429 0 19.748571-16.018286 29.622857-37.302857 29.622857H293.302857c-21.211429 0-37.229714-14.848-37.229714-34.523429 0-19.748571 15.945143-29.622857 37.302857-29.622857z m0-192.292571h31.890286c21.284571 0 37.302857 14.774857 37.302857 34.523428 0 19.748571-16.018286 34.523429-37.302857 34.523429H293.302857c-21.211429 0-37.229714-14.774857-37.229714-34.523429 0-19.748571 15.945143-34.523429 37.302857-34.523428z"  horiz-adv-x="1024" />
      
      <glyph glyph-name="zhankai-menu" unicode="&#58907;" d="M385.322722 364.60931500000004L385.322722-2.59059000000002c0-15.446965 10.581779-28.096449 23.596152-28.096449 13.01437199 0 23.596152 12.649483 23.596152 28.096449L432.515026 364.60931500000004c0 15.446965-10.581779 28.096449-23.596152 28.096449C395.904502 392.705764 385.322722 380.05628 385.322722 364.60931500000004zM594.282456 364.60931499000003L594.282456-2.59059000000002c0-15.446965 10.581779-28.096449 23.596152-28.096449s23.596152 12.649483 23.596152 28.096449L641.47475901 364.60931500000004c0 15.446965-10.581779 28.096449-23.59615201 28.096449S594.28245601 380.05628 594.282456 364.60931499000003zM803.36382 364.122797L803.36382-2.1040709999999763c0-15.811854 10.581779-28.582967 23.596152-28.582967 13.01437199 0 23.59615199 12.771113 23.596152 28.582967l0 366.226868c0 15.811854-10.581779 28.582967-23.596152 28.582967C813.945599 392.705764 803.36382 379.93465100000003 803.36382 364.122797zM223.312032-2.1040709999999763L223.312032 740.444925c0 15.811854-10.581779 28.582967-23.596152 28.582967-13.01437199 0-23.59615199-12.771113-23.596152-28.582967L176.119729-2.1040709999999763c0-15.811854 10.581779-28.582967 23.596152-28.582967C212.730253-30.68703800000003 223.312032-17.915924990000008 223.312032-2.1040709999999763zM677.963654 775.96078201l0-90.61408701L371.578572 685.346695c-15.446965 0-28.096449-10.581779-28.096449-23.596152S356.131607 638.276021 371.578572 638.276021l306.385081 0 0-90.614087c0-14.230669 3.770519-21.163559 6.446371-22.501485 2.189334-1.094667 9.122224 0.12163 18.730966 7.905927L827.08160099 632.1945390000001c10.21689 8.149186 15.811854 18.609336 15.81185401 29.55600399 0 10.94666799-5.594964 21.40681801-15.811854 29.55600401l-124.06224 99.249792c-9.608742 7.662668-16.54163199 8.878964-18.730966 7.784297C681.734173 797.2459699999999 677.963654 790.191451 677.963654 775.96078201z"  horiz-adv-x="1024" />
      
      <glyph glyph-name="zhaikai-menu" unicode="&#58908;" d="M638.677278 403.390685L638.677278 770.59059c0 15.446965-10.581779 28.096449-23.596152 28.096449-13.01437199 0-23.596152-12.649483-23.596152-28.096449L591.484974 403.390685c0-15.446965 10.581779-28.096449 23.596152-28.096449C628.095498 375.29423599999996 638.677278 387.94372 638.677278 403.390685zM429.717544 403.39068501L429.717544 770.59059c0 15.446965-10.581779 28.096449-23.596152 28.096449s-23.596152-12.649483-23.596152-28.096449L382.52524099 403.390685c0-15.446965 10.581779-28.096449 23.59615201-28.096449S429.71754399 387.94372 429.717544 403.39068501zM220.63618 403.877203L220.63618 770.104071c0 15.811854-10.581779 28.582967-23.596152 28.582967-13.01437199 0-23.59615199-12.771113-23.596152-28.582967l0-366.226868c0-15.811854 10.581779-28.582967 23.596152-28.582967C210.054401 375.29423599999996 220.63618 388.065349 220.63618 403.877203zM800.687968 770.104071L800.687968 27.555074999999988c0-15.811854 10.581779-28.582967 23.596152-28.582967 13.01437199 0 23.59615199 12.771113 23.596152 28.582967L847.880271 770.104071c0 15.811854-10.581779 28.582967-23.596152 28.582967C811.269747 798.687038 800.687968 785.91592499 800.687968 770.104071zM346.036346-7.960782010000003l0 90.61408701L652.421428 82.65330500000005c15.446965 0 28.096449 10.581779 28.096449 23.596152S667.868393 129.72397899999999 652.421428 129.72397899999999l-306.385081 0 0 90.614087c0 14.230669-3.770519 21.163559-6.446371 22.501485-2.189334 1.094667-9.122224-0.12163-18.730966-7.905927L196.91839901 135.80546100000004c-10.21689-8.149186-15.811854-18.609336-15.81185401-29.55600399 0-10.94666799 5.594964-21.40681801 15.811854-29.55600401l124.06224-99.249792c9.608742-7.662668 16.54163199-8.878964 18.730966-7.784297C342.265827-29.245970000000057 346.036346-22.19145100000003 346.036346-7.960782010000003z"  horiz-adv-x="1024" />
      
      <glyph glyph-name="zhankai" unicode="&#58934;" d="M155.648 50.176h712.704c11.60704 0 20.48-8.87296 20.48-20.48s-8.87296-20.48-20.48-20.48H155.648c-11.60704 0-20.48 8.87296-20.48 20.48s8.87296 20.48 20.48 20.48z m0 236.20096H512c11.60704 0 20.48-8.87296 20.48-20.48s-8.87296-20.48-20.48-20.48H155.648c-11.60704 0-20.48 8.87296-20.48 20.48s8.87296 20.48 20.48 20.48z m0 236.20608H512c11.60704 0 20.48-8.87296 20.48-20.48s-8.87296-20.48-20.48-20.48H155.648c-11.60704 0-20.48 8.87296-20.48 20.48 0 11.60192 8.87296 20.48 20.48 20.48z m0 236.20096h712.704c11.60704 0 20.48-8.87296 20.48-20.48s-8.87296-20.48-20.48-20.48H155.648c-11.60704 0-20.48 8.87296-20.48 20.48s8.87296 20.48 20.48 20.48zM868.352 384l-102.4-59.392-102.4-58.71104V502.10304l102.4-58.71104 102.4-59.392z"  horiz-adv-x="1024" />
      
      <glyph glyph-name="zhankai1" unicode="&#59102;" d="M864.5 798h-705C125.6 798 98 770.4 98 736.5v-705c0-33.9 27.6-61.5 61.5-61.5h705c33.9 0 61.5 27.6 61.5 61.5v705c0 33.9-27.6 61.5-61.5 61.5z m0-788.7h-705c-12.2 0-22.1 9.9-22.1 22.1v705c0 12.2 9.9 22.1 22.1 22.1h705c12.2 0 22.1-9.9 22.1-22.1v-705c0.1-12.1-9.9-22.1-22.1-22.1zM485.2 645.1c-11.2-11.3-11.2-29.4 0.1-40.5l203.3-200.3c11.3-11.2 11.3-29.5 0-40.6L485.4 163.4c-11.3-11.1-11.3-29.3-0.1-40.5 11.2-11.2 29.3-11.1 40.4 0.2L763.3 364c11 11.1 11 28.9 0 40L525.7 644.9c-11.1 11.3-29.3 11.4-40.5 0.2zM261.3 645.1c-11.2-11.3-11.2-29.4 0.1-40.5l203.3-200.3c11.3-11.2 11.3-29.5 0-40.6L261.4 163.4c-11.3-11.1-11.3-29.3-0.1-40.5 11.2-11.2 29.3-11.1 40.4 0.2L539.4 364c11 11.1 11 28.9 0 40L301.8 644.9c-11.2 11.3-29.3 11.4-40.5 0.2z"  horiz-adv-x="1024" />
      
      <glyph glyph-name="shouqi" unicode="&#59103;" d="M159.5-30h705c33.9 0 61.5 27.6 61.5 61.5v705c0 33.9-27.6 61.5-61.5 61.5h-705C125.6 798 98 770.4 98 736.5v-705c0-33.9 27.6-61.5 61.5-61.5z m0 788.7h705c12.2 0 22.1-9.9 22.1-22.1v-705c0-12.2-9.9-22.1-22.1-22.1h-705c-12.2 0-22.1 9.9-22.1 22.1v705c-0.1 12.1 9.9 22.1 22.1 22.1zM538.8 122.9c11.2 11.3 11.2 29.4-0.1 40.5L335.3 363.7c-11.3 11.2-11.3 29.5 0 40.6l203.3 200.3c11.3 11.1 11.3 29.3 0.1 40.5-11.2 11.2-29.3 11.1-40.4-0.2L260.7 404c-11-11.1-11-28.9 0-40l237.6-240.9c11.1-11.3 29.3-11.4 40.5-0.2zM762.7 122.9c11.2 11.3 11.2 29.4-0.1 40.5L559.3 363.7c-11.3 11.2-11.3 29.5 0 40.6l203.3 200.3c11.3 11.1 11.3 29.3 0.1 40.5-11.2 11.2-29.3 11.1-40.4-0.2L484.6 404c-11-11.1-11-28.9 0-40l237.6-240.9c11.2-11.3 29.3-11.4 40.5-0.2z"  horiz-adv-x="1024" />
      
      <glyph glyph-name="fold1" unicode="&#58906;" d="M155.648 50.176000000000045L868.352 50.176000000000045c11.605333 0 20.48-8.874667 20.48-20.48s-8.874667-20.48-20.48-20.48l-712.704 0c-11.605333 0-20.48 8.874667-20.48 20.48s8.874667 20.48 20.48 20.48zM155.648 286.37866699999995L512 286.37866699999995c11.605333 0 20.48-8.874667 20.48-20.48s-8.874667-20.48-20.48-20.48l-356.352 0c-11.605333 0-20.48 8.874667-20.48 20.48s8.874667 20.48 20.48 20.48zM155.648 522.581333L512 522.581333c11.605333 0 20.48-8.874667 20.48-20.48s-8.874667-20.48-20.48-20.48l-356.352 0c-11.605333 0-20.48 8.874667-20.48 20.48s8.874667 20.48 20.48 20.48zM155.648 758.784L868.352 758.784c11.605333 0 20.48-8.874667 20.48-20.48s-8.874667-20.48-20.48-20.48l-712.704 0c-11.605333 0-20.48 8.874667-20.48 20.48s8.874667 20.48 20.48 20.48zM663.552 384l102.4-59.392 102.4-58.709333 0 236.202666-102.4-58.709333z"  horiz-adv-x="1024" />
      
      <glyph glyph-name="spread-line" unicode="&#58903;" d="M497.3568 337.408c3.9936-3.9936 9.3184-6.0416 14.6432-5.93919999 5.3248 0 10.6496 1.9456 14.6432 5.93919999l302.1824 302.1824c7.9872 7.9872 7.9872 20.992 0 28.9792-7.9872 7.9872-20.992 7.9872-28.9792 0L512 380.7232 224.0512 668.672c-7.9872 7.9872-20.992 7.9872-28.9792 0-7.9872-7.9872-7.9872-20.992 0-28.9792l302.2848-302.2848zM828.928 430.592c-7.9872 7.9872-20.992 7.9872-28.9792-1e-8L512 142.64319998999997 224.0512 430.59199999c-7.9872 7.9872-20.992 7.9872-28.9792 1e-8-7.9872-7.9872-7.9872-20.992 0-28.9792L497.3568 99.32799999999997c3.9936-3.9936 9.3184-6.0416 14.6432-5.9392 5.3248 0 10.6496 1.9456 14.6432 5.9392l302.1824 302.1824c7.9872 7.9872 7.9872 21.0944 0.1024 29.0816z"  horiz-adv-x="1024" />
      
      <glyph glyph-name="spread-line1" unicode="&#58905;" d="M526.6432 430.592c-3.9936 3.9936-9.3184 6.0416-14.6432 5.93919999-5.3248 0-10.6496-1.9456-14.6432-5.93919999l-302.1824-302.1824c-7.9872-7.9872-7.9872-20.992 0-28.9792 7.9872-7.9872 20.992-7.9872 28.9792 0L512 387.2768 799.9488 99.32799999999997c7.9872-7.9872 20.992-7.9872 28.9792 0 7.9872 7.9872 7.9872 20.992 0 28.9792l-302.2848 302.2848zM195.072 337.408c7.9872-7.9872 20.992-7.9872 28.9792 1e-8L512 625.3568000099999 799.9488 337.40800001c7.9872-7.9872 20.992-7.9872 28.9792-1e-8 7.9872 7.9872 7.9872 20.992 0 28.9792L526.6432 668.672c-3.9936 3.9936-9.3184 6.0416-14.6432 5.9392-5.3248 0-10.6496-1.9456-14.6432-5.9392l-302.1824-302.1824c-7.9872-7.9872-7.9872-21.0944-0.1024-29.0816z"  horiz-adv-x="1024" />
      
      <glyph glyph-name="GroupCopy" unicode="&#58904;" d="M536.486957 868.173913C263.835826 868.173913 42.918957 647.212522 42.918957 374.650435c0-272.517565 220.91687-493.478957 493.478956-493.478957s493.523478 220.961391 493.523478 493.478957C1029.965913 647.212522 808.96 868.173913 536.442435 868.173913z m0-44.521739c247.941565 0 448.957217-201.015652 448.957217-449.001739 0-247.986087-201.015652-448.957217-449.001739-448.957218-247.986087 0-448.957217 201.015652-448.957218 448.957218 0 247.986087 201.015652 449.001739 448.957218 449.001739zM399.538087 537.421913l136.904348-154.490435 136.904348 154.490435h53.426087l-190.330435-214.817391-190.330435 214.817391h53.426087zM399.538087 374.650435l136.904348-154.490435 136.904348 154.490435h53.426087l-190.330435-214.77287-190.330435 214.77287h53.426087z"  horiz-adv-x="1068" />
      
      <glyph glyph-name="xiangshang" unicode="&#58920;" d="M531.277913-95.766261C258.671304-95.766261 37.754435 125.19513 37.754435 397.712696 37.754435 670.274783 258.715826 891.236174 531.277913 891.236174c272.562087 0 493.478957-220.961391 493.478957-493.523478 0-272.517565-220.91687-493.478957-493.478957-493.478957z m0 44.521739c247.986087 0 448.957217 201.015652 448.957217 448.957218 0 247.986087-201.015652 449.001739-448.957217 449.001739-247.986087 0-449.001739-201.015652-449.001739-449.001739 0-247.986087 201.015652-448.957217 449.001739-448.957218zM394.373565 234.985739l136.904348 154.490435 136.904348-154.490435h53.426087l-190.330435 214.817391-190.374956-214.817391h53.426086zM394.373565 397.712696l136.904348 154.490434 136.904348-154.490434h53.426087l-190.330435 214.817391-190.374956-214.817391h53.426086z"  horiz-adv-x="1024" />
      
      <glyph glyph-name="shangyou" unicode="&#58949;" d="M538.737778 839.111111a455.111111 455.111111 0 1 0 0-910.222222 455.111111 455.111111 0 0 0 0 910.222222z m0-113.777778a341.333333 341.333333 0 1 1 0-682.666666 341.333333 341.333333 0 0 1 0 682.666666zM538.737778 725.333333a341.333333 341.333333 0 1 1 0-682.666666 341.333333 341.333333 0 0 1 0 682.666666zM538.737778 867.555556a483.555556 483.555556 0 1 1 0-967.111112 483.555556 483.555556 0 0 1 0 967.111112z m0-56.888889a426.666667 426.666667 0 1 0 0-853.333334 426.666667 426.666667 0 0 0 0 853.333334z"  horiz-adv-x="1024" />
      
      <glyph glyph-name="zhongyou" unicode="&#58950;" d="M510.192941 864.978824a481.882353 481.882353 0 1 0 0-963.764706 481.882353 481.882353 0 0 0 0 963.764706z m0-80.293648a401.588706 401.588706 0 1 1 0-803.117176 401.588706 401.588706 0 0 1 0 803.117176z"  horiz-adv-x="1024" />
      
      <glyph glyph-name="yingyonglingyu" unicode="&#58951;" d="M950.830545 471.784727a124.136727 124.136727 0 0 0 0-175.569454l-351.045818-351.045818a124.136727 124.136727 0 0 0-175.569454 0l-351.045818 351.045818a124.136727 124.136727 0 0 0 0 175.569454l351.045818 351.045818a124.136727 124.136727 0 0 0 175.569454 0l351.045818-351.045818z m-43.892363-43.892363l-351.045818 351.045818a62.091636 62.091636 0 0 1-82.385455 4.840727l-5.399273-4.840727-351.045818-351.045818a62.091636 62.091636 0 0 1-4.840727-82.385455l4.840727-5.399273 351.045818-351.045818a62.091636 62.091636 0 0 1 82.385455-4.840727l5.399273 4.840727 351.045818 351.045818a62.091636 62.091636 0 0 1 4.840727 82.385455l-4.840727 5.399273z"  horiz-adv-x="1024" />
      
      <glyph glyph-name="xiayou" unicode="&#58952;" d="M911.119059 383.096471L570.368 723.847529 229.616941 383.096471l340.751059-340.751059zM996.291765 468.329412a120.470588 120.470588 0 0 0 0-170.405647l-340.751059-340.751059a120.470588 120.470588 0 0 0-170.345412 0L144.444235 297.923765a120.470588 120.470588 0 0 0 0 170.345411l340.751059 340.751059a120.470588 120.470588 0 0 0 170.345412 0L996.291765 468.329412z m-42.586353-42.646588L612.954353 766.494118a60.235294 60.235294 0 0 1-79.932235 4.698353l-5.240471-4.698353-340.751059-340.751059a60.235294 60.235294 0 0 1-4.698353-79.932235l4.698353-5.240471 340.751059-340.751059a60.235294 60.235294 0 0 1 79.932235-4.638118l5.240471 4.638118 340.751059 340.751059a60.235294 60.235294 0 0 1 4.698353 79.932235l-4.698353 5.240471z"  horiz-adv-x="1084" />
      
      <glyph glyph-name="iconset0448" unicode="&#59207;" d="M736 640C599.466667 640 490.666667 531.2 490.666667 394.666667L490.666667 384l0-10.666667c0-110.933333-91.733333-202.666667-202.666667-202.666667C177.066667 170.666667 85.333333 262.4 85.333333 373.333333l0 21.333333c0 110.933333 91.733333 202.666667 202.666667 202.666667 44.8 0 83.2-14.933333 117.333333-42.666667l-85.333333 0c-12.8 0-21.333333-8.533333-21.333333-21.333333 0-12.8 8.533333-21.333333 21.333333-21.333333l128 0c12.8 0 21.333333 8.533333 21.333333 21.333333l0 128c0 12.8-8.533333 21.333333-21.333333 21.333333s-21.333333-8.533333-21.333333-21.333333l0-70.4c-42.666667 32-91.733333 49.066667-138.666667 49.066667C151.466667 640 42.666667 531.2 42.666667 394.666667l0-21.333333C42.666667 236.8 151.466667 128 288 128S533.333333 236.8 533.333333 373.333333L533.333333 384l0 10.666667c0 110.933333 91.733333 202.666667 202.666667 202.666667s202.666667-91.733333 202.666667-202.666667l0-21.333333c0-110.933333-91.733333-202.666667-202.666667-202.666667-44.8 0-83.2 14.933333-117.333333 42.666667l85.333333 0c12.8 0 21.333333 8.533333 21.333333 21.333333 0 12.8-8.533333 21.333333-21.333333 21.333333l-128 0c-12.8 0-21.333333-8.533333-21.333333-21.333333l0-128c0-12.8 8.533333-21.333333 21.333333-21.333333s21.333333 8.533333 21.333333 21.333333l0 70.4c42.666667-32 91.733333-49.066667 138.666667-49.066667C872.533333 128 981.333333 236.8 981.333333 373.333333l0 21.333333C981.333333 531.2 872.533333 640 736 640z"  horiz-adv-x="1024" />
      
      <glyph glyph-name="shujuliutong" unicode="&#59027;" d="M736 640c-136.533 0-245.333-108.8-245.333-245.333v-21.334c0-110.933-91.734-202.666-202.667-202.666S85.333 262.4 85.333 373.333v21.334c0 110.933 91.734 202.666 202.667 202.666 44.8 0 83.2-14.933 117.333-42.666H320c-12.8 0-21.333-8.534-21.333-21.334 0-12.8 8.533-21.333 21.333-21.333h128c12.8 0 21.333 8.533 21.333 21.333v128c0 12.8-8.533 21.334-21.333 21.334s-21.333-8.534-21.333-21.334v-70.4C384 622.933 334.933 640 288 640 151.467 640 42.667 531.2 42.667 394.667v-21.334C42.667 236.8 151.467 128 288 128s245.333 108.8 245.333 245.333v21.334c0 110.933 91.734 202.666 202.667 202.666S938.667 505.6 938.667 394.667v-21.334c0-110.933-91.734-202.666-202.667-202.666-44.8 0-83.2 14.933-117.333 42.666H704c12.8 0 21.333 8.534 21.333 21.334 0 12.8-8.533 21.333-21.333 21.333H576c-12.8 0-21.333-8.533-21.333-21.333v-128c0-12.8 8.533-21.334 21.333-21.334s21.333 8.534 21.333 21.334v70.4C640 145.067 689.067 128 736 128c136.533 0 245.333 108.8 245.333 245.333v21.334C981.333 531.2 872.533 640 736 640z"  horiz-adv-x="1024" />
      
      <glyph glyph-name="shujuliu" unicode="&#59521;" d="M1.152 239.104l0.832-0.256 1.856-2.304a56.512 56.512 0 0 0 2.752-5.056c31.488-50.304 110.72-94.72 209.472-99.008l15.744-0.32c10.624 0 16.96 0 25.856-3.392l7.296-3.2v-152.384h-33.152c-121.472 0-224.448 80.256-231.424 163.328L0 145.408v88.32c0 2.048 0.128 3.968 0.64 4.864l0.512 0.512z m1009.792 30.784l0.576-0.512a14.464 14.464 0 0 0 0.576-4.928v-88.32c0-86.08-105.984-172.16-231.872-172.16h-33.088v152.32a53.12 53.12 0 0 0 25.856 6.592h7.232c105.984 0 192.128 46.4 225.28 99.392a24.512 24.512 0 0 0 4.608 7.36l0.832 0.256zM529.856 436.8l132.48-198.656-132.48-198.72v132.48H331.2v132.48h198.656v132.48z m-440.512-343.104l2.688-2.88c24.512-24 62.848-43.968 106.304-50.944l2.56-0.32v29.824h-1.6a401.152 401.152 0 0 0-106.624 23.04l-3.328 1.28z m833.536 30.848l-3.456-1.408a396.736 396.736 0 0 0-84.352-20.608l-24-2.432v-29.76l3.712 0.448c39.872 6.656 75.136 24.064 99.328 45.312l8.768 8.448zM1.152 504.064c0.896 0.192 2.56-1.728 5.44-7.68 26.496-59.52 119.232-99.328 225.28-99.328 10.56 0 16.896 0 25.792 3.392l7.296 3.2v-165.504h-33.152C110.464 238.08 7.68 299.712 0.384 375.36L0 383.808V498.624c0 2.112 0.128 3.968 0.64 4.928l0.512 0.512z m1009.792 14.848l0.576-0.512a14.464 14.464 0 0 0 0.576-4.928V398.72c0-79.488-105.984-145.728-231.872-145.728h-33.088V418.56c13.248-6.592 19.84-6.592 33.088-6.592 101.184 0 190.272 36.224 221.184 91.328l4.032 8a24.512 24.512 0 0 0 4.672 7.36l0.832 0.256zM71.936 362.24l1.28-1.92c18.624-24.704 63.68-48.192 120.576-55.68l7.104-0.768V334.08h-1.152a420.672 420.672 0 0 0-118.016 24.32l-9.792 3.84z m868.288 14.976l-9.92-3.968c-29.696-11.008-62.528-18.56-97.088-22.4l-22.144-1.856v-30.336l6.72 0.704c56.064 7.296 100.224 29.952 119.616 53.888l2.816 3.968zM231.808 768l13.888-0.192c115.072-3.136 210.368-44.992 217.536-99.2l0.448-6.592v-46.336c0-63.872-98.56-109.312-218.432-112.448l-13.44-0.192C110.72 503.04 7.872 546.048 0.448 602.496L0 609.024v52.992c0 57.408 98.24 102.528 217.92 105.792L231.808 768z m560.384 0l13.888-0.192c115.072-3.136 210.304-44.992 217.472-99.2l0.448-6.592v-46.336c0-63.872-98.56-109.312-218.432-112.448l-13.44-0.192c-121.152 0-223.872 43.008-231.36 99.456l-0.448 6.528v52.992c0 57.408 98.304 102.528 217.984 105.792L792.192 768z m-561.28-64h0.896c-91.52 0-160.896-29.312-167.296-40.448L64 662.016l-0.128-51.2 1.6-1.408c3.712-3.2 14.08-10.88 33.088-18.944 34.368-14.656 82.24-23.424 133.248-23.424 53.248 0 102.208 9.6 135.872 25.408 21.12 9.92 29.952 18.432 31.68 22.08l0.32 1.152 0.064 44.544-3.136 2.56a138.24 138.24 0 0 1-27.968 16.256c-27.712 12.48-65.28 21.12-106.112 23.936l-17.664 0.832L230.976 704z m560.384 0h0.896c-91.52 0-160.96-29.312-167.36-40.448l-0.512-1.536-0.064-51.2 3.584-3.008c4.8-3.776 14.784-10.368 31.104-17.28 34.368-14.72 82.176-23.488 133.248-23.488 53.248 0 102.208 9.6 135.808 25.408 21.184 9.92 30.016 18.432 31.68 22.08L960 615.68l0.128 44.544-5.696 4.48a147.84 147.84 0 0 1-25.472 14.336c-27.712 12.48-65.28 21.12-106.112 23.936l-17.664 0.832L791.296 704z"  horiz-adv-x="1024" />
      
      <glyph glyph-name="shujuliuzhuan" unicode="&#58933;" d="M304.913067 186.6752c-6.690133 0-13.4144 2.56-18.500267 7.68-35.84 36.0448-63.351467 80.4864-79.530667 128.546133-16.725333 49.698133-21.367467 103.5264-13.4144 155.682134 6.7584 44.305067 22.016 85.947733 45.329067 123.835733a26.108587 26.108587 0 0 0 35.9424 8.533333 26.108587 26.108587 0 0 0 8.533333-35.9424c-19.626667-31.880533-32.4608-66.9696-38.161066-104.311466-13.312-87.278933 15.9744-176.810667 78.336-239.5136 10.171733-10.24 10.1376-26.760533-0.1024-36.932267a26.105173 26.105173 0 0 0-18.432-7.5776zM311.739733 637.371733m-82.500266 0a82.500267 82.500267 0 1 1 165.000533 0 82.500267 82.500267 0 1 1-165.000533 0ZM521.591467 96.699733c-3.140267 0-6.280533 0.034133-9.454934 0.136534a26.12224 26.12224 0 0 0-25.361066 26.862933c0.4096 14.404267 12.458667 25.8048 26.862933 25.361067 37.410133-1.058133 74.24 5.358933 109.431467 19.114666 82.261333 32.119467 145.134933 102.229333 168.2432 187.5968 3.754667 13.9264 18.1248 22.152533 32.0512 18.397867 13.9264-3.754667 22.152533-18.1248 18.397866-32.0512-13.277867-49.0496-38.024533-95.095467-71.543466-133.154133-34.679467-39.3216-78.984533-70.280533-128.136534-89.463467-38.8096-15.1552-79.291733-22.801067-120.490666-22.801067zM445.44 142.5408m-81.476267 0a81.476267 81.476267 0 1 1 162.952534 0 81.476267 81.476267 0 1 1-162.952534 0ZM790.357333 547.84c-9.284267 0-18.295467 4.949333-23.005866 13.7216-17.783467 32.938667-41.745067 61.610667-71.236267 85.1968-68.949333 55.1936-161.109333 74.581333-246.5792 51.9168a26.156373 26.156373 0 0 0-31.9488 18.5344 26.156373 26.156373 0 0 0 18.5344 31.9488c49.117867 13.038933 101.376 14.609067 151.074133 4.608 51.4048-10.3424 100.352-33.245867 141.550934-66.2528 34.986667-27.989333 63.419733-62.0544 84.5824-101.1712 6.8608-12.6976 2.116267-28.535467-10.581334-35.396267-3.959467-2.082133-8.192-3.106133-12.3904-3.106133zM807.1168 505.719467m-82.978133 0a82.978133 82.978133 0 1 1 165.956266 0 82.978133 82.978133 0 1 1-165.956266 0Z"  horiz-adv-x="1024" />
      
      <glyph glyph-name="32_sjjc_C_BI_shujuliurenwu_1" unicode="&#59170;" d="M672 864c35.2 0 64-28.8 64-64v-64h96c105.6 0 192-86.4 192-192 0-102.4-83.2-188.8-185.6-192H736v-64c0-35.2-28.8-64-64-64H320c-35.2 0-64 28.8-64 64v64H192c-89.6 0-160-70.4-160-160 0-86.4 67.2-156.8 153.6-160H256v64c0 35.2 28.8 64 64 64h352c35.2 0 64-28.8 64-64v-160c0-35.2-28.8-64-64-64H320c-35.2 0-64 28.8-64 64v64H192c-105.6 0-192 86.4-192 192s86.4 192 192 192h64v64c0 35.2 28.8 64 64 64h352c35.2 0 64-28.8 64-64v-64h102.4c86.4 3.2 153.6 73.6 153.6 160s-67.2 156.8-153.6 160H736v-64c0-35.2-28.8-64-64-64H320c-35.2 0-64 28.8-64 64V800c0 35.2 28.8 64 64 64h352zM288-64c0-16 12.8-28.8 28.8-32H672c16 0 28.8 12.8 32 28.8V96c0 16-12.8 28.8-28.8 32H320c-16 0-28.8-12.8-32-28.8V-64z m384 544H320c-16 0-28.8-12.8-32-28.8V288c0-16 12.8-28.8 28.8-32H672c16 0 28.8 12.8 32 28.8V448c0 16-12.8 28.8-28.8 32H672z m0 352H320c-16 0-28.8-12.8-32-28.8V640c0-16 12.8-28.8 28.8-32H672c16 0 28.8 12.8 32 28.8V800c0 16-12.8 28.8-28.8 32H672zM176 112l96-83.2c6.4-6.4 6.4-12.8 0-19.2l-96-83.2c-6.4-6.4-16-6.4-22.4 0s-6.4 12.8 0 19.2l83.2 73.6-83.2 73.6c-6.4 6.4-6.4 12.8 0 19.2s16 6.4 22.4 0z m636.8 348.8l-96-83.2c-6.4-6.4-6.4-12.8 0-19.2l96-83.2c6.4-6.4 16-6.4 22.4 0s6.4 12.8 0 19.2l-83.2 73.6 83.2 73.6c6.4 6.4 6.4 12.8 0 19.2-6.4 6.4-16 6.4-22.4 0z"  horiz-adv-x="1024" />
      
      <glyph glyph-name="xiaolvdashitubiao33312" unicode="&#59095;" d="M513.126-198.4c-243.635 0-441.83 198.195-441.83 441.805 0 243.635 198.195 441.83 441.83 441.83 243.61 0 441.805-198.195 441.805-441.83 0-243.61-198.195-441.805-441.805-441.805zM513.126 634.035c-215.398 0-390.63-175.232-390.63-390.63 0-215.373 175.232-390.605 390.63-390.605 215.373 0 390.605 175.232 390.605 390.605 0 215.398-175.232 390.63-390.605 390.63zM621.517 300.262h-92.954v144.026c0 32.666-13.338 59.443-29.696 59.443s-29.747-26.778-29.747-59.443v-203.469h152.397c32.666 0 59.443 13.363 59.443 29.722s-26.752 29.722-59.443 29.722zM919.552 618.778c-8.064-11.52-24.115-14.387-35.661-6.298l-104.218 72.96c-11.52 8.064-14.387 24.090-6.298 35.661l4.762 6.758c8.064 11.546 24.090 14.387 35.661 6.298l104.166-72.986c11.546-8.064 14.387-24.115 6.298-35.661l-4.71-6.733zM101.53 610.509c-9.062 10.803-7.629 27.008 3.149 36.070l97.408 81.792c10.752 9.062 26.982 7.629 36.045-3.174l5.325-6.323c9.062-10.803 7.629-27.034-3.149-36.070l-97.459-81.741c-10.778-9.062-27.008-7.629-36.045 3.174l-5.274 6.272z"  horiz-adv-x="1024" />
      
      <glyph glyph-name="renwu" unicode="&#58910;" d="M511.9744-163.2832c-242.304 0-439.424 197.12-439.424 439.424 0 242.2784 197.12 439.424 439.424 439.424 242.3296 0 439.4752-197.12 439.4752-439.424C951.4496 33.8368 754.304-163.2832 511.9744-163.2832zM511.9744 677.1392c-221.1328 0-401.024-179.8912-401.024-401.024s179.8912-401.024 401.024-401.024c221.1584 0 401.0752 179.8912 401.0752 401.024S733.1328 677.1392 511.9744 677.1392zM509.3376 242.1952c-10.5984 0-19.2 8.6016-19.2 19.2L490.1376 546.912c0 10.5984 8.6016 19.2 19.2 19.2s19.2-8.6016 19.2-19.2l0-285.4912C528.5376 250.7968 519.9616 242.1952 509.3376 242.1952zM794.8544 242.1952 509.3376 242.1952c-10.5984 0-19.2 8.6016-19.2 19.2s8.6016 19.2 19.2 19.2l285.4912 0c10.5984 0 19.2-8.6016 19.2-19.2S805.4528 242.1952 794.8544 242.1952zM113.1008 620.5888c-5.3248 0-10.6496 2.2016-14.4384 6.5536-6.9632 7.9872-6.1696 20.1216 1.792 27.1104l119.1168 104.32c7.9616 6.9632 20.0704 6.2208 27.1104-1.792 6.9632-7.9872 6.1696-20.1216-1.792-27.1104L125.7472 625.3504C122.112 622.1504 117.6064 620.5888 113.1008 620.5888zM908.3648 627.1936c-4.1216 0-8.2944 1.3312-11.8272 4.096l-124.6208 97.7152c-8.3456 6.5536-9.8048 18.6112-3.2512 26.9568 6.5024 8.32 18.56 9.8304 26.9568 3.2512l124.6208-97.7152c8.3456-6.5536 9.8048-18.6112 3.2512-26.9568C919.7312 629.728 914.0736 627.1936 908.3648 627.1936z"  horiz-adv-x="1024" />
      
      <glyph glyph-name="renwu1" unicode="&#58900;" d="M513.022977 382.465534m-510.465534 0a510.465534 510.465534 0 1 1 1020.931068 0 510.465534 510.465534 0 1 1-1020.931068 0ZM731.94006 84.779221H294.617383c-21.994006 0-39.896104 18.413586-39.896104 40.407592v444.995005c0 21.994006 17.902098 40.407592 39.896104 40.407593h19.948052v-60.867133c0-21.994006 17.902098-40.407592 39.896103-40.407593h318.145855c21.994006 0 39.896104 18.413586 39.896104 40.407593V610.589411h19.948051c21.994006 0 39.896104-18.413586 39.896104-40.407593v-444.995005c-0.511489-22.505495-18.413586-40.407592-40.407592-40.407592z m-88.487513 274.66933c-11.764236 11.764236-30.689311 11.764236-42.453546 0l-106.38961-103.320679-49.614386 48.07992c-11.764236 11.764236-30.689311 11.764236-42.453546 0-11.764236-11.764236-11.764236-29.666334 0-40.919081L473.126873 195.260739c11.764236-11.764236 30.689311-11.764236 42.453547 0l127.360639 123.268732c12.275724 11.252747 12.275724 29.666334 0.511488 40.91908z m-31.200799 190.273727H413.794206c-21.994006 0-39.896104 18.413586-39.896104 40.407592v20.459541C453.69031 669.922078 454.713287 670.945055 475.172827 690.893107h78.769231c19.436563-18.925075 18.925075-20.971029 97.694306-80.815185v-20.45954c0.511489-21.994006-16.879121-39.896104-39.384616-39.896104zM513.022977 650.485514c-21.994006 0-39.896104-18.413586-39.896104-40.407592s17.902098-40.407592 39.896104-40.407592 39.896104 18.413586 39.896104 40.407592c0 22.505495-17.902098 40.407592-39.896104 40.407592z"  horiz-adv-x="1024" />
      
      <glyph glyph-name="renwu2" unicode="&#58901;" d="M896 874.667H128c-36.267 0-64-27.734-64-64v-853.334c0-36.266 27.733-64 64-64h768c36.267 0 64 27.734 64 64V810.667c0 36.266-27.733 64-64 64z m21.333-917.334c0-12.8-8.533-21.333-21.333-21.333H128c-12.8 0-21.333 8.533-21.333 21.333V810.667C106.667 823.467 115.2 832 128 832h768c12.8 0 21.333-8.533 21.333-21.333v-853.334zM213.333 620.8a44.8 44.8 0 1 1 89.6 0 44.8 44.8 0 1 1-89.6 0zM213.333 405.333a44.8 44.8 0 1 1 89.6 0 44.8 44.8 0 1 1-89.6 0zM213.333 189.867a44.8 44.8 0 1 1 89.6 0 44.8 44.8 0 1 1-89.6 0zM789.333 644.267H384c-12.8 0-21.333-10.667-21.333-21.334S373.333 601.6 384 601.6h405.333c12.8 0 21.334 10.667 21.334 21.333S800 644.267 789.333 644.267z m0-217.6H384c-12.8 0-21.333-10.667-21.333-21.334S373.333 384 384 384h405.333c12.8 0 21.334 10.667 21.334 21.333S800 426.667 789.333 426.667z m0-215.467H384c-12.8 0-21.333-10.667-21.333-21.333s10.666-21.334 21.333-21.334h405.333c12.8 0 21.334 10.667 21.334 21.334S800 211.2 789.333 211.2z"  horiz-adv-x="1024" />
      
      <glyph glyph-name="renwu3" unicode="&#59032;" d="M129.682 802.89h669.55c51.42 0 93.11-41.692 93.11-93.039v-744.74c0-51.42-41.69-93.111-93.11-93.111h-669.55c-51.42 0-93.11 41.691-93.11 93.11V709.852c0 51.347 41.69 93.038 93.11 93.038z m96.037-232.741a46.519 46.519 0 1 1 0-93.038h192.22a46.519 46.519 0 1 1 0 93.038h-192.22z m0-186.149a46.519 46.519 0 1 1 0-93.11h477.476a46.519 46.519 0 1 1 0 93.11H225.72z m0-186.149a46.519 46.519 0 1 1 0-93.11h477.476a46.519 46.519 0 1 1 0 93.11H225.72zM224.768 896h669.55c51.42 0 93.11-41.691 93.11-93.11v-744.741c0-51.347-41.69-93.038-93.11-93.038h-669.55c-51.42 0-93.11 41.691-93.11 93.038V802.889c0 51.42 41.69 93.111 93.11 93.111z m0.95-46.519A46.519 46.519 0 0 1 179.2 802.89v-744.74c0-25.674 20.846-46.52 46.519-46.52h667.648a46.519 46.519 0 0 1 46.519 46.52V802.889a46.519 46.519 0 0 1-46.52 46.592H225.72z"  horiz-adv-x="1024" />
      
      <glyph glyph-name="renwu4" unicode="&#59141;" d="M896 832a64 64 0 0 0 64-64v-768a64 64 0 0 0-64-64H128a64 64 0 0 0-64 64V768a64 64 0 0 0 64 64h768z m-19.2-64H147.2a19.2 19.2 0 0 1-19.2-19.2v-729.6a19.2 19.2 0 0 1 19.2-19.2h729.6a19.2 19.2 0 0 1 19.2 19.2V748.8a19.2 19.2 0 0 1-19.2 19.2zM224 224a32 32 0 1 0 0-64 32 32 0 0 0 0 64z m576 0a32 32 0 1 0 0-64h-448a32 32 0 1 0 0 64h448z m-576 192a32 32 0 1 0 0-64 32 32 0 0 0 0 64z m576 0a32 32 0 1 0 0-64h-448a32 32 0 0 0 0 64h448z m-576 192a32 32 0 1 0 0-64 32 32 0 0 0 0 64z m576 0a32 32 0 1 0 0-64h-448a32 32 0 0 0 0 64h448z"  horiz-adv-x="1024" />
      
      <glyph glyph-name="renwu5" unicode="&#58902;" d="M332.8512 250.16319999999996m-113.7152 0a113.7152 113.7152 0 1 1 227.4304 0 113.7152 113.7152 0 1 1-227.4304 0ZM826.112 806.144H206.2848c-76.2368 0-138.24-62.0032-138.24-138.24v-559.0528c0-76.2368 62.0032-138.24 138.24-138.24h619.8272c76.2368 0 138.24 62.0032 138.24 138.24V667.904c0 76.2368-62.0032 138.24-138.24 138.24z m87.04-697.2928c0-47.9744-39.0656-87.04-87.04-87.04H206.2848c-47.9744 0-87.04 39.0656-87.04 87.04V667.904c0 47.9744 39.0656 87.04 87.04 87.04h619.8272c47.9744 0 87.04-39.0656 87.04-87.04v-559.0528zM292.9664 491.1104c4.8128-4.9152 11.4176-7.68 18.3296-7.68h0.1536a25.6512 25.6512 0 0 1 18.3808 7.8848L459.264 626.6368c9.7792 10.24 9.4208 26.4192-0.8192 36.1984-10.24 9.7792-26.4192 9.4208-36.1984-0.8192L311.0912 545.7919999999999 243.3024 615.1168c-9.8816 10.0864-26.112 10.2912-36.1984 0.4096-10.0864-9.8816-10.2912-26.112-0.4096-36.1984l86.272-88.2176zM811.3152 534.5792h-250.9824c-14.1312 0-25.6-11.4688-25.6-25.6s11.4688-25.6 25.6-25.6h250.9824c14.1312 0 25.6 11.4688 25.6 25.6s-11.4688 25.6-25.6 25.6zM811.3152 275.7632h-250.9824c-14.1312 0-25.6-11.4688-25.6-25.6s11.4688-25.6 25.6-25.6h250.9824c14.1312 0 25.6 11.4688 25.6 25.6s-11.4688 25.6-25.6 25.6zM332.8512 389.4784c-76.8 0-139.3152-62.5152-139.3152-139.3152s62.5152-139.3152 139.3152-139.3152 139.3152 62.5152 139.3152 139.3152-62.5152 139.3152-139.3152 139.3152z m0-227.4304c-48.5888 0-88.1152 39.5264-88.1152 88.1152 0 48.5888 39.5264 88.1152 88.1152 88.1152 48.5888 0 88.1152-39.5264 88.1152-88.1152 0-48.5888-39.5264-88.1152-88.1152-88.1152z"  horiz-adv-x="1024" />
      
      <glyph glyph-name="jiancopyx" unicode="&#58893;" d="M512 833.939394C263.788606 833.939394 62.060606 632.211394 62.060606 384s201.728-449.939394 449.939394-449.939394 449.939394 201.728 449.939394 449.939394S760.211394 833.939394 512 833.939394z m262.469818-472.436364H249.530182c-12.737939 0-22.49697 9.743515-22.49697 22.49697s9.75903 22.49697 22.49697 22.49697h524.939636c12.737939 0 22.49697-9.743515 22.49697-22.49697s-9.75903-22.49697-22.49697-22.49697z"  horiz-adv-x="1024" />
      
      <glyph glyph-name="jian" unicode="&#59175;" d="M512 825.71776c-244.51584 0-442.73152-197.76-442.73152-441.71776S267.48416-57.71776 512-57.71776s442.73152 197.76512 442.73152 441.71776S756.51584 825.71776 512 825.71776m223.04256-488.32512H288.95232A46.60224 46.60224 0 0 0 242.35008 384a46.60736 46.60736 0 0 0 46.60224 46.60736h446.09024a46.61248 46.61248 0 0 0 0-93.21472z"  horiz-adv-x="1024" />
      
      <glyph glyph-name="jia" unicode="&#58895;" d="M513.688967-61.32955500000003c-60.173474 0-118.562303 11.790534-173.544545 35.047214-53.092195 22.455431-100.768031 54.597479-141.702326 95.532797-40.934295 40.934295-73.076342 88.611154-95.532797 141.703349-23.255657 54.982242-35.047214 113.372094-35.047214 173.546591s11.791557 118.563326 35.047214 173.545568c22.456455 53.092195 54.597479 100.768031 95.532797 141.703349s88.61013 73.077366 141.702326 95.532797c54.982242 23.255657 113.37107 35.047214 173.544545 35.047214 60.174498 0 118.563326-11.791557 173.546591-35.047214 53.093219-22.456455 100.770078-54.598502 141.704372-95.532797 40.935318-40.934295 73.077366-88.61013 95.532797-141.703349 23.25668-54.982242 35.047214-113.372094 35.047214-173.545568s-11.790534-118.563326-35.047214-173.546591c-22.455431-53.093219-54.597479-100.769055-95.532797-141.703349-40.934295-40.935318-88.611154-73.077366-141.704372-95.532797C632.253316-49.53799700000002 573.863465-61.32955500000003 513.688967-61.32955500000003zM513.688967 773.024178c-103.777575 0-201.343681-40.413432-274.725992-113.795742-73.382311-73.382311-113.795742-170.94944-113.795742-274.728038s40.413432-201.346751 113.795742-274.729062 170.948417-113.795742 274.725992-113.795742c103.779621 0 201.347774 40.413432 274.730085 113.795742s113.795742 170.94944 113.795742 274.729062c0 103.778598-40.413432 201.345728-113.795742 274.728038S617.468588 773.024178 513.688967 773.024178zM513.691013 226.56843500000002c-15.824407 0-28.652574 12.828167-28.652574 28.652574l0 258.558777c0 15.824407 12.828167 28.652574 28.652574 28.652574s28.652574-12.828167 28.652574-28.652574l0-258.558777C542.343587 239.39660100000003 529.515421 226.56843500000002 513.691013 226.56843500000002zM648.270105 355.84782299999995L379.111922 355.84782299999995c-15.824407 0-28.652574 12.828167-28.652574 28.652574s12.828167 28.652574 28.652574 28.652574l269.158183 0c15.824407 0 28.652574-12.828167 28.652574-28.652574S664.094512 355.84782299999995 648.270105 355.84782299999995z"  horiz-adv-x="1024" />
      
      <glyph glyph-name="jia1" unicode="&#59031;" d="M741.888 426.496h-191.488V619.008c1.024 20.992-15.36 38.4-36.352 38.912-20.992 1.024-38.4-15.36-38.912-36.352v-195.584H282.624c-20.992 0-37.888-16.896-37.888-37.888 0-20.992 16.896-37.376 37.888-37.888h192.512v-190.976c-1.024-20.992 15.36-38.4 36.352-38.912s38.4 15.36 38.912 36.352v194.048h191.488c20.992 0 37.888 16.896 37.888 37.888-0.512 20.992-17.408 37.888-37.888 37.888z m120.832-388.096c-193.024-192.512-505.856-192-698.368 1.536s-191.488 505.856 1.536 698.368 505.856 192 698.368-1.536c141.312-142.336 182.784-355.84 104.96-540.672a498.7904 498.7904 0 0 0-106.496-157.696z"  horiz-adv-x="1024" />
      
      <glyph glyph-name="jian1" unicode="&#58896;" d="M512.154 830.817c-246.165 0-446.442-200.277-446.442-446.441 0-246.166 200.277-446.442 446.442-446.442 246.165 0 446.442 200.276 446.442 446.442 0 246.164-200.278 446.441-446.442 446.441z m0-837.079c-215.4 0-390.637 175.237-390.637 390.639 0 215.4 175.236 390.636 390.637 390.636S902.79 599.777 902.79 384.377c0-215.403-175.236-390.639-390.636-390.639z m167.415 418.54H344.74c-15.424 0-27.903-12.48-27.903-27.902 0-15.396 12.48-27.903 27.903-27.903h334.83c15.424 0 27.903 12.507 27.903 27.903 0 15.422-12.48 27.902-27.903 27.902z"  horiz-adv-x="1024" />
      
      <glyph glyph-name="jian2" unicode="&#58974;" d="M512 896c282.763636 0 512-229.236364 512-512s-229.236364-512-512-512S0 101.236364 0 384 229.236364 896 512 896z m0-93.090909a418.909091 418.909091 0 1 1 0-837.818182 418.909091 418.909091 0 0 1 0 837.818182z m186.181818-372.363636a46.545455 46.545455 0 1 0 0-93.09091H325.818182a46.545455 46.545455 0 1 0 0 93.09091z"  horiz-adv-x="1024" />
      
      <glyph glyph-name="gouwuche" unicode="&#58983;" d="M819.2 656H256l-8 48c-8 46.4-48 80-94.4 80H96c-17.6 0-32-14.4-32-32s14.4-32 32-32h57.6c16 0 28.8-11.2 32-27.2l75.2-432v-3.2c6.4-28.8 32-49.6 62.4-49.6h440c30.4 0 57.6 22.4 62.4 52.8l57.6 320c0 3.2 1.6 8 1.6 11.2-1.6 35.2-30.4 64-65.6 64z m-56-384h-440l-54.4 320h552l-57.6-320zM304 176c-52.8 0-96-43.2-96-96s43.2-96 96-96 96 43.2 96 96-43.2 96-96 96z m0-128c-17.6 0-32 14.4-32 32s14.4 32 32 32 32-14.4 32-32-14.4-32-32-32z m464 128c-52.8 0-96-43.2-96-96s43.2-96 96-96 96 43.2 96 96-43.2 96-96 96z m0-128c-17.6 0-32 14.4-32 32s14.4 32 32 32 32-14.4 32-32-14.4-32-32-32z"  horiz-adv-x="1024" />
      
      <glyph glyph-name="gouwugouwuchedinggou" unicode="&#58892;" d="M979.584 631.552c-10.368 12.928-26.24 20.352-43.52 20.352L231.168 651.904l-42.368 172.8c-3.072 12.672-14.592 21.632-27.648 21.632L61.568 846.336c-15.744 0-28.416-12.8-28.416-28.416s12.8-28.416 28.416-28.416l77.312 0 159.744-651.392c-41.088-16.768-70.144-57.088-70.144-104.064 0-61.952 50.432-112.384 112.384-112.384s112.384 50.432 112.384 112.384c0 20.096-5.376 39.04-14.72 55.424l184.576 0c-9.344-16.384-14.72-35.328-14.72-55.424 0-61.952 50.432-112.384 112.384-112.384 61.952 0 112.384 50.432 112.384 112.384 0 61.952-50.432 112.384-112.384 112.384-0.512 0-1.152 0-1.664 0-0.256 0-0.64 0-0.896 0L355.2 146.43200000000002l-15.872 64.64 467.712 0c23.296 0 44.032 14.08 51.456 34.56l129.024 336.64c0 0.128 0 0.128 0.128 0.256 0.128 0.256 0.128 0.384 0.256 0.64C993.792 599.6800000000001 990.72 617.7280000000001 979.584 631.552zM396.288 34.048c0-30.592-24.832-55.424-55.424-55.424S285.44 3.4560000000000173 285.44 34.048c0 30.592 24.832 55.424 55.424 55.424C371.456 89.47199999999998 396.288 64.51199999999994 396.288 34.048zM720.768-21.50400000000002c-30.592 0-55.424 24.832-55.424 55.424 0 30.592 24.832 55.424 55.424 55.424 30.592 0 55.424-24.832 55.424-55.424C776.192 3.4560000000000173 751.36-21.50400000000002 720.768-21.50400000000002zM806.272 267.904L325.376 267.904l-80.256 327.04 686.464 0L806.272 267.904zM380.032 466.944l375.68 0c15.744 0 28.416 12.8 28.416 28.416s-12.8 28.416-28.416 28.416L380.032 523.7760000000001c-15.744 0-28.416-12.8-28.416-28.416S364.288 466.944 380.032 466.944zM722.944 395.904L412.8 395.904c-15.744 0-28.416-12.8-28.416-28.416 0-15.744 12.8-28.416 28.416-28.416l310.144 0c15.744 0 28.416 12.8 28.416 28.416C751.36 383.23199999999997 738.56 395.904 722.944 395.904z"  horiz-adv-x="1024" />
      
      <glyph glyph-name="code" unicode="&#58984;" d="M322.133333 599.466667c-12.8 12.8-32 12.8-44.8 0l-192-192c-12.8-12.8-12.8-32 0-44.8l192-192c6.4-6.4 14.933333-8.533333 23.466667-8.533334s17.066667 2.133333 23.466667 8.533334c12.8 12.8 12.8 32 0 44.8L151.466667 384l168.533333 168.533333c12.8 12.8 12.8 34.133333 2.133333 46.933334zM940.8 407.466667l-192 192c-12.8 12.8-32 12.8-44.8 0-12.8-12.8-12.8-32 0-44.8l168.533333-168.533334-168.533333-168.533333c-12.8-12.8-12.8-32 0-44.8 6.4-6.4 14.933333-8.533333 23.466667-8.533333s17.066667 2.133333 23.466666 8.533333l192 192c8.533333 8.533333 8.533333 29.866667-2.133333 42.666667zM622.933333 819.2c-17.066667 4.266667-34.133333-6.4-38.4-23.466667L366.933333-6.4c-4.266667-17.066667 6.4-34.133333 23.466667-38.4 2.133333 0 6.4-2.133333 8.533333-2.133333 14.933333 0 27.733333 8.533333 29.866667 23.466666L644.266667 780.8c4.266667 17.066667-4.266667 34.133333-21.333334 38.4z"  horiz-adv-x="1024" />
      
      <glyph glyph-name="customer-service" unicode="&#58986;" d="M864 456.533333V469.333333c0 194.133333-157.866667 352-352 352S160 663.466667 160 469.333333v-12.8c-36.266667-4.266667-64-36.266667-64-72.533333v-170.666667c0-40.533333 34.133333-74.666667 74.666667-74.666666h85.333333c40.533333 0 74.666667 34.133333 74.666667 74.666666v170.666667c0 40.533333-34.133333 74.666667-74.666667 74.666667h-32V469.333333c0 157.866667 130.133333 288 288 288S800 627.2 800 469.333333v-10.666666H768c-40.533333 0-74.666667-34.133333-74.666667-74.666667v-170.666667c0-40.533333 34.133333-74.666667 74.666667-74.666666h21.333333c-17.066667-49.066667-59.733333-98.133333-179.2-106.666667-12.8 19.2-32 32-55.466666 32-36.266667 0-64-27.733333-64-64s27.733333-64 64-64c23.466667 0 44.8 12.8 55.466666 34.133333 166.4 10.666667 226.133333 91.733333 245.333334 170.666667 40.533333 2.133333 72.533333 34.133333 72.533333 74.666667v170.666666c0 36.266667-27.733333 66.133333-64 70.4z m-597.333333-72.533333v-170.666667c0-6.4-4.266667-10.666667-10.666667-10.666666H170.666667c-6.4 0-10.666667 4.266667-10.666667 10.666666v170.666667c0 6.4 4.266667 10.666667 10.666667 10.666667h85.333333c6.4 0 10.666667-4.266667 10.666667-10.666667z m597.333333-170.666667c0-6.4-4.266667-10.666667-10.666667-10.666666h-85.333333c-6.4 0-10.666667 4.266667-10.666667 10.666666v170.666667c0 6.4 4.266667 10.666667 10.666667 10.666667h85.333333c6.4 0 10.666667-4.266667 10.666667-10.666667v-170.666667z"  horiz-adv-x="1024" />
      
      <glyph glyph-name="elipsis" unicode="&#58990;" d="M192 384m-64 0a64 64 0 1 1 128 0 64 64 0 1 1-128 0ZM512 384m-64 0a64 64 0 1 1 128 0 64 64 0 1 1-128 0ZM832 384m-64 0a64 64 0 1 1 128 0 64 64 0 1 1-128 0Z"  horiz-adv-x="1024" />
      
      <glyph glyph-name="fabulous" unicode="&#58991;" d="M859.733333 642.133333c-44.8 44.8-102.4 70.4-166.4 70.4-61.866667 0-121.6-25.6-166.4-70.4l-14.933333-17.066666-17.066667 17.066666c-44.8 44.8-102.4 70.4-166.4 70.4-61.866667 0-121.6-25.6-166.4-70.4-91.733333-91.733333-91.733333-243.2 0-337.066666l324.266667-330.666667c6.4-6.4 14.933333-8.533333 23.466667-8.533333s17.066667 4.266667 23.466666 8.533333l324.266667 330.666667c44.8 44.8 68.266667 104.533333 68.266667 168.533333s-21.333333 123.733333-66.133334 168.533333z m-44.8-290.133333L512 42.666667 209.066667 352c-66.133333 68.266667-66.133333 179.2 0 247.466667 32 32 74.666667 51.2 119.466666 51.2 44.8 0 87.466667-17.066667 119.466667-51.2l38.4-40.533334c12.8-12.8 34.133333-12.8 44.8 0l38.4 40.533334c32 32 74.666667 51.2 119.466667 51.2 44.8 0 87.466667-17.066667 119.466666-51.2 32-32 49.066667-76.8 49.066667-123.733334s-12.8-91.733333-42.666667-123.733333z"  horiz-adv-x="1024" />
      
      <glyph glyph-name="good" unicode="&#58995;" d="M881.066667 501.333333c-21.333333 23.466667-51.2 36.266667-81.066667 36.266667H618.666667v117.333333c0 44.8-29.866667 85.333333-87.466667 117.333334-17.066667 10.666667-38.4 12.8-57.6 8.533333-19.2-4.266667-36.266667-17.066667-46.933333-34.133333-2.133333-2.133333-2.133333-4.266667-4.266667-6.4l-125.866667-281.6H204.8c-59.733333 0-108.8-46.933333-108.8-106.666667v-258.133333c0-57.6 49.066667-106.666667 108.8-106.666667h544c53.333333 0 98.133333 38.4 106.666667 89.6l51.2 337.066667c4.266667 34.133333-6.4 64-25.6 87.466666z m-593.066667-448H204.8c-25.6 0-44.8 19.2-44.8 42.666667v256c0 23.466667 19.2 42.666667 44.8 42.666667h83.2v-341.333334z m554.666667 373.333334L789.333333 89.6c-4.266667-21.333333-21.333333-36.266667-42.666666-36.266667H352V424.533333l130.133333 290.133334c2.133333 4.266667 4.266667 4.266667 6.4 4.266666 2.133333 0 4.266667 0 8.533334-2.133333 25.6-14.933333 55.466667-38.4 55.466666-64v-149.333333c0-17.066667 14.933333-32 32-32h213.333334c12.8 0 25.6-4.266667 34.133333-14.933334 8.533333-6.4 12.8-19.2 10.666667-29.866666z"  horiz-adv-x="1024" />
      
      <glyph glyph-name="fullscreen-shrink" unicode="&#58998;" d="M313.6 537.6H177.066667c-17.066667 0-32-14.933333-32-32s14.933333-32 32-32h213.333333c4.266667 0 8.533333 0 10.666667 2.133333 8.533333 4.266667 14.933333 8.533333 17.066666 17.066667 2.133333 4.266667 2.133333 8.533333 2.133334 10.666667v213.333333c0 17.066667-14.933333 32-32 32s-32-14.933333-32-32v-136.533333L172.8 770.133333c-12.8 12.8-32 12.8-44.8 0-12.8-12.8-12.8-32 0-44.8l185.6-187.733333zM695.466667 245.333333H832c17.066667 0 32 14.933333 32 32s-14.933333 32-32 32H618.666667c-4.266667 0-8.533333 0-10.666667-2.133333-8.533333-4.266667-14.933333-8.533333-17.066667-17.066667-2.133333-4.266667-2.133333-8.533333-2.133333-10.666666v-213.333334c0-17.066667 14.933333-32 32-32s32 14.933333 32 32v136.533334l200.533333-200.533334c6.4-6.4 14.933333-8.533333 23.466667-8.533333s17.066667 2.133333 23.466667 8.533333c12.8 12.8 12.8 32 0 44.8l-204.8 198.4zM435.2 290.133333c-4.266667 8.533333-8.533333 14.933333-17.066667 17.066667-4.266667 2.133333-8.533333 2.133333-10.666666 2.133333H192c-17.066667 0-32-14.933333-32-32s14.933333-32 32-32h136.533333L128 44.8c-12.8-12.8-12.8-32 0-44.8 6.4-6.4 14.933333-8.533333 23.466667-8.533333s17.066667 2.133333 23.466666 8.533333l200.533334 200.533333V64c0-17.066667 14.933333-32 32-32s32 14.933333 32 32V277.333333c-2.133333 4.266667-2.133333 8.533333-4.266667 12.8zM603.733333 492.8c4.266667-8.533333 8.533333-14.933333 17.066667-17.066667 4.266667-2.133333 8.533333-2.133333 10.666667-2.133333h213.333333c17.066667 0 32 14.933333 32 32s-14.933333 32-32 32h-136.533333L896 725.333333c12.8 12.8 12.8 32 0 44.8-12.8 12.8-32 12.8-44.8 0l-187.733333-187.733333V718.933333c0 17.066667-14.933333 32-32 32s-32-14.933333-32-32v-213.333333c2.133333-4.266667 2.133333-8.533333 4.266666-12.8z"  horiz-adv-x="1024" />
      
      <glyph glyph-name="fullscreen-expand" unicode="&#58997;" d="M149.333333 501.333333c17.066667 0 32 14.933333 32 32v136.533334l187.733334-187.733334c6.4-6.4 14.933333-8.533333 23.466666-8.533333s17.066667 2.133333 23.466667 8.533333c12.8 12.8 12.8 32 0 44.8l-187.733333 187.733334H362.666667c17.066667 0 32 14.933333 32 32s-14.933333 32-32 32H149.333333c-4.266667 0-8.533333 0-10.666666-2.133334-8.533333-4.266667-14.933333-10.666667-19.2-17.066666-2.133333-4.266667-2.133333-8.533333-2.133334-12.8v-213.333334c0-17.066667 14.933333-32 32-32zM874.666667 266.666667c-17.066667 0-32-14.933333-32-32v-136.533334L642.133333 298.666667c-12.8 12.8-32 12.8-44.8 0s-12.8-32 0-44.8l200.533334-200.533334H661.333333c-17.066667 0-32-14.933333-32-32s14.933333-32 32-32h213.333334c4.266667 0 8.533333 0 10.666666 2.133334 8.533333 4.266667 14.933333 8.533333 17.066667 17.066666 2.133333 4.266667 2.133333 8.533333 2.133333 10.666667V234.666667c2.133333 17.066667-12.8 32-29.866666 32zM381.866667 300.8l-200.533334-200.533333V234.666667c0 17.066667-14.933333 32-32 32s-32-14.933333-32-32v-213.333334c0-4.266667 0-8.533333 2.133334-10.666666 4.266667-8.533333 8.533333-14.933333 17.066666-17.066667 4.266667-2.133333 8.533333-2.133333 10.666667-2.133333h213.333333c17.066667 0 32 14.933333 32 32s-14.933333 32-32 32h-136.533333l200.533333 200.533333c12.8 12.8 12.8 32 0 44.8s-29.866667 10.666667-42.666666 0zM904.533333 757.333333c0 2.133333 0 2.133333 0 0-4.266667 8.533333-10.666667 14.933333-17.066666 17.066667-4.266667 2.133333-8.533333 2.133333-10.666667 2.133333H661.333333c-17.066667 0-32-14.933333-32-32s14.933333-32 32-32h136.533334l-187.733334-187.733333c-12.8-12.8-12.8-32 0-44.8 6.4-6.4 14.933333-8.533333 23.466667-8.533333s17.066667 2.133333 23.466667 8.533333l187.733333 187.733333V533.333333c0-17.066667 14.933333-32 32-32s32 14.933333 32 32V746.666667c-2.133333 4.266667-2.133333 8.533333-4.266667 10.666666z"  horiz-adv-x="1024" />
      
      <glyph glyph-name="notification" unicode="&#59001;" d="M800 270.933333V448c0 117.333333-70.4 217.6-170.666667 262.4-4.266667 61.866667-55.466667 110.933333-117.333333 110.933333s-113.066667-49.066667-117.333333-110.933333c-100.266667-44.8-170.666667-145.066667-170.666667-262.4v-177.066667c-57.6-46.933333-85.333333-110.933333-85.333333-185.6 0-17.066667 14.933333-32 32-32h206.933333c14.933333-61.866667 70.4-106.666667 134.4-106.666666s119.466667 44.8 134.4 106.666666H853.333333c17.066667 0 32 14.933333 32 32 0 76.8-27.733333 138.666667-85.333333 185.6zM512 757.333333c19.2 0 36.266667-10.666667 44.8-25.6-14.933333 2.133333-29.866667 4.266667-44.8 4.266667-14.933333 0-29.866667-2.133333-44.8-4.266667 8.533333 14.933333 25.6 25.6 44.8 25.6z m0-746.666666c-29.866667 0-55.466667 17.066667-66.133333 42.666666h134.4c-12.8-25.6-38.4-42.666667-68.266667-42.666666z m-307.2 106.666666c6.4 46.933333 29.866667 83.2 70.4 113.066667 8.533333 6.4 12.8 14.933333 12.8 25.6v192c0 123.733333 100.266667 224 224 224S736 571.733333 736 448v-192c0-10.666667 4.266667-19.2 12.8-25.6 40.533333-29.866667 64-66.133333 70.4-113.066667H204.8z"  horiz-adv-x="1024" />
      
      <glyph glyph-name="mic" unicode="&#59000;" d="M516.266667 238.933333c78.933333 0 142.933333 64 142.933333 142.933334V678.4a142.933333 142.933333 0 0 1-285.866667 0v-296.533333c0-78.933333 64-142.933333 142.933334-142.933334z m-78.933334 439.466667c0 42.666667 36.266667 78.933333 78.933334 78.933333s78.933333-36.266667 78.933333-78.933333v-296.533333c0-42.666667-36.266667-78.933333-78.933333-78.933334s-78.933333 36.266667-78.933334 78.933334V678.4zM774.4 486.4c-17.066667 0-32-14.933333-32-32v-74.666667c0-125.866667-102.4-228.266667-228.266667-228.266666S288 256 288 381.866667v74.666666c0 17.066667-14.933333 32-32 32s-32-14.933333-32-32v-74.666666c0-149.333333 113.066667-273.066667 260.266667-290.133334v-85.333333h-117.333334c-17.066667 0-32-14.933333-32-32s14.933333-32 32-32h296.533334c17.066667 0 32 14.933333 32 32s-14.933333 32-32 32h-117.333334v85.333333c145.066667 14.933333 260.266667 140.8 260.266667 290.133334v74.666666c0 17.066667-12.8 29.866667-32 29.866667z"  horiz-adv-x="1024" />
      
      <glyph glyph-name="navigation" unicode="&#59002;" d="M834.133333 682.666667c-6.4 12.8-17.066667 23.466667-29.866666 27.733333-12.8 4.266667-27.733333 4.266667-40.533334-2.133333L106.666667 394.666667c-14.933333-6.4-25.6-21.333333-29.866667-36.266667-6.4-27.733333 12.8-57.6 40.533333-64l249.6-53.333333 53.333334-249.6c4.266667-17.066667 14.933333-29.866667 29.866666-36.266667 6.4-4.266667 14.933333-4.266667 23.466667-4.266667 19.2 0 38.4 10.666667 49.066667 29.866667l313.6 657.066667c6.4 12.8 6.4 29.866667-2.133334 44.8zM477.866667 34.133333L426.666667 273.066667c-2.133333 12.8-12.8 21.333333-23.466667 23.466666L162.133333 349.866667l601.6 288-285.866666-603.733334z"  horiz-adv-x="1024" />
      
      <glyph glyph-name="move" unicode="&#59003;" d="M921.6 403.2l-121.6 121.6c-12.8 12.8-32 12.8-44.8 0s-12.8-32 0-44.8l66.133333-66.133333h-277.333333v277.333333l66.133333-66.133333c6.4-6.4 14.933333-8.533333 23.466667-8.533334s17.066667 2.133333 23.466667 8.533334c12.8 12.8 12.8 32 0 44.8l-121.6 121.6c-12.8 12.8-32 12.8-44.8 0l-121.6-121.6c-12.8-12.8-12.8-32 0-44.8 12.8-12.8 32-12.8 44.8 0l66.133333 66.133333v-277.333333h-277.333333l66.133333 66.133333c12.8 12.8 12.8 32 0 44.8-12.8 12.8-32 12.8-44.8 0l-121.6-121.6c-12.8-12.8-12.8-32 0-44.8l121.6-121.6c6.4-6.4 14.933333-8.533333 23.466667-8.533333s17.066667 2.133333 23.466666 8.533333c12.8 12.8 12.8 32 0 44.8l-66.133333 66.133333h277.333333v-277.333333l-66.133333 66.133333c-12.8 12.8-32 12.8-44.8 0s-12.8-32 0-44.8l121.6-121.6c6.4-6.4 14.933333-8.533333 23.466667-8.533333s17.066667 2.133333 23.466666 8.533333l121.6 121.6c12.8 12.8 12.8 32 0 44.8s-32 12.8-44.8 0l-66.133333-66.133333v277.333333h277.333333l-66.133333-66.133333c-12.8-12.8-12.8-32 0-44.8 6.4-6.4 14.933333-8.533333 23.466667-8.533333s17.066667 2.133333 23.466666 8.533333l121.6 121.6c6.4 6.4 8.533333 14.933333 8.533334 23.466667s-10.666667 14.933333-17.066667 21.333333z"  horiz-adv-x="1024" />
      
      <glyph glyph-name="pin" unicode="&#59005;" d="M911.15102 572.081633L689.632653 793.6c-18.808163 18.808163-50.155102 20.897959-71.053061 2.089796l-267.493878-229.877551-96.130612-14.628572c-6.269388 0-12.538776-4.179592-16.718367-8.359183l-58.514286-58.514286c-20.897959-20.897959-20.897959-54.334694 0-73.142857l152.555102-152.555102L125.387755 51.722449c-12.538776-12.538776-12.538776-31.346939 0-43.885714 6.269388-6.269388 14.628571-10.44898 20.897959-10.44898s16.718367 2.089796 22.987755 8.359184l204.8 204.8 152.555102-152.555102c10.44898-10.44898 22.987755-14.628571 37.616327-14.628572s27.167347 6.269388 37.616326 14.628572l58.514286 58.514285c4.179592 4.179592 8.359184 10.44898 8.359184 16.718368l14.628571 96.130612 227.787755 267.493878c18.808163 25.077551 18.808163 56.42449 0 75.232653zM631.118367 266.971429c-4.179592-4.179592-6.269388-10.44898-6.269387-14.628572l-14.628572-94.040816-45.97551-45.97551-334.367347 334.367347 43.885714 43.885714 94.040817 14.628571c6.269388 0 10.44898 4.179592 14.628571 6.269388l269.583674 229.877551 206.889795-206.889796-227.787755-267.493877z"  horiz-adv-x="1024" />
      
      <glyph glyph-name="search" unicode="&#59006;" d="M945.066667-2.133333l-189.866667 189.866666c55.466667 64 87.466667 149.333333 87.466667 241.066667 0 204.8-168.533333 373.333333-373.333334 373.333333S96 631.466667 96 426.666667 264.533333 53.333333 469.333333 53.333333c91.733333 0 174.933333 34.133333 241.066667 87.466667l189.866667-189.866667c6.4-6.4 14.933333-8.533333 23.466666-8.533333s17.066667 2.133333 23.466667 8.533333c8.533333 12.8 8.533333 34.133333-2.133333 46.933334zM469.333333 117.333333C298.666667 117.333333 160 256 160 426.666667S298.666667 736 469.333333 736 778.666667 597.333333 778.666667 426.666667 640 117.333333 469.333333 117.333333z"  horiz-adv-x="1024" />
      
      <glyph glyph-name="time" unicode="&#59008;" d="M512 821.333333C270.933333 821.333333 74.666667 625.066667 74.666667 384S270.933333-53.333333 512-53.333333 949.333333 142.933333 949.333333 384 753.066667 821.333333 512 821.333333z m0-810.666666c-204.8 0-373.333333 168.533333-373.333333 373.333333S307.2 757.333333 512 757.333333 885.333333 588.8 885.333333 384 716.8 10.666667 512 10.666667zM695.466667 328.533333l-151.466667 70.4V618.666667c0 17.066667-14.933333 32-32 32s-32-14.933333-32-32v-238.933334c0-12.8 6.4-23.466667 19.2-29.866666l170.666667-81.066667c4.266667-2.133333 8.533333-2.133333 12.8-2.133333 12.8 0 23.466667 6.4 29.866666 19.2 6.4 14.933333 0 34.133333-17.066666 42.666666z"  horiz-adv-x="1024" />
      
      <glyph glyph-name="telephone-out" unicode="&#59009;" d="M817.066667 309.333333c-32 4.266667-64 12.8-96 23.466667-38.4 14.933333-81.066667 4.266667-110.933334-23.466667l-27.733333-27.733333c-70.4 44.8-130.133333 102.4-172.8 172.8l27.733333 27.733333c27.733333 29.866667 38.4 72.533333 23.466667 110.933334-10.666667 29.866667-19.2 61.866667-23.466667 96-6.4 51.2-51.2 89.6-104.533333 89.6h-108.8c-32 0-59.733333-12.8-78.933333-34.133334-19.2-21.333333-29.866667-51.2-27.733334-81.066666 12.8-117.333333 53.333333-230.4 117.333334-328.533334 57.6-91.733333 136.533333-170.666667 228.266666-228.266666 98.133333-64 211.2-104.533333 328.533334-117.333334h8.533333c25.6 0 51.2 10.666667 70.4 27.733334 21.333333 19.2 34.133333 49.066667 34.133333 76.8v108.8c4.266667 53.333333-36.266667 98.133333-87.466666 106.666666z m25.6-106.666666v-108.8c0-10.666667-4.266667-23.466667-12.8-29.866667-8.533333-8.533333-19.2-10.666667-29.866667-10.666667-106.666667 10.666667-211.2 49.066667-300.8 106.666667-83.2 53.333333-155.733333 125.866667-209.066667 209.066667-57.6 89.6-96 194.133333-106.666666 300.8 0 10.666667 2.133333 23.466667 10.666666 32 8.533333 8.533333 19.2 12.8 29.866667 12.8h108.8c21.333333 0 38.4-14.933333 40.533333-34.133334 4.266667-36.266667 14.933333-74.666667 27.733334-108.8 6.4-14.933333 2.133333-32-8.533334-42.666666l-46.933333-46.933334c-10.666667-10.666667-12.8-25.6-4.266667-38.4 55.466667-96 134.4-174.933333 230.4-230.4 12.8-6.4 27.733333-4.266667 38.4 4.266667l46.933334 46.933333c10.666667 10.666667 27.733333 14.933333 42.666666 8.533334 36.266667-12.8 72.533333-21.333333 108.8-27.733334 19.2-2.133333 34.133333-19.2 34.133334-42.666666 0 2.133333 0 2.133333 0 0zM930.133333 625.066667c2.133333 4.266667 2.133333 8.533333 2.133334 12.8s0 8.533333-2.133334 10.666666c-2.133333 4.266667-4.266667 8.533333-6.4 10.666667L793.6 789.333333c-12.8 12.8-32 12.8-44.8 0-12.8-12.8-12.8-32 0-44.8l74.666667-74.666666H640c-17.066667 0-32-14.933333-32-32s14.933333-32 32-32h183.466667L746.666667 531.2c-12.8-12.8-12.8-32 0-44.8 6.4-6.4 14.933333-8.533333 23.466666-8.533333s17.066667 2.133333 23.466667 8.533333l130.133333 130.133333c2.133333 2.133333 4.266667 4.266667 6.4 8.533334z"  horiz-adv-x="1024" />
      
      <glyph glyph-name="telephone" unicode="&#59010;" d="M817.066667 309.333333c-32 4.266667-64 12.8-96 23.466667-38.4 14.933333-81.066667 4.266667-110.933334-23.466667l-27.733333-27.733333c-70.4 44.8-130.133333 102.4-172.8 172.8l27.733333 27.733333c27.733333 29.866667 38.4 72.533333 23.466667 110.933334-10.666667 29.866667-19.2 61.866667-23.466667 96-6.4 51.2-51.2 89.6-104.533333 89.6h-108.8c-32 0-59.733333-12.8-78.933333-34.133334-19.2-21.333333-29.866667-51.2-27.733334-81.066666 12.8-117.333333 53.333333-230.4 117.333334-328.533334 57.6-91.733333 136.533333-170.666667 228.266666-228.266666 98.133333-64 211.2-104.533333 328.533334-117.333334h8.533333c25.6 0 51.2 10.666667 70.4 27.733334 21.333333 19.2 34.133333 49.066667 34.133333 76.8v108.8c4.266667 53.333333-36.266667 98.133333-87.466666 106.666666z m25.6-106.666666v-108.8c0-10.666667-4.266667-23.466667-12.8-29.866667-8.533333-8.533333-19.2-10.666667-29.866667-10.666667-106.666667 10.666667-211.2 49.066667-300.8 106.666667-83.2 53.333333-155.733333 125.866667-209.066667 209.066667-57.6 89.6-96 194.133333-106.666666 300.8 0 10.666667 2.133333 23.466667 10.666666 32 8.533333 8.533333 19.2 12.8 29.866667 12.8h108.8c21.333333 0 38.4-14.933333 40.533333-34.133334 4.266667-36.266667 14.933333-74.666667 27.733334-108.8 6.4-14.933333 2.133333-32-8.533334-42.666666l-46.933333-46.933334c-10.666667-10.666667-12.8-25.6-4.266667-38.4 55.466667-96 134.4-174.933333 230.4-230.4 12.8-6.4 27.733333-4.266667 38.4 4.266667l46.933334 46.933333c10.666667 10.666667 27.733333 14.933333 42.666666 8.533334 36.266667-12.8 72.533333-21.333333 108.8-27.733334 19.2-2.133333 34.133333-19.2 34.133334-42.666666 0 2.133333 0 2.133333 0 0z"  horiz-adv-x="1024" />
      
      <glyph glyph-name="unlock" unicode="&#59011;" d="M785.066667 480H381.866667v121.6c0 74.666667 61.866667 134.4 138.666666 134.4 59.733333 0 113.066667-36.266667 132.266667-91.733333 6.4-17.066667 23.466667-25.6 40.533333-19.2 17.066667 6.4 25.6 23.466667 19.2 40.533333-27.733333 81.066667-104.533333 134.4-192 134.4-110.933333 0-202.666667-89.6-202.666666-198.4v-121.6h-78.933334c-55.466667 0-100.266667-44.8-100.266666-100.266667v-311.466666c0-55.466667 44.8-100.266667 100.266666-100.266667h546.133334c55.466667 0 100.266667 44.8 100.266666 100.266667V379.733333c0 55.466667-44.8 100.266667-100.266666 100.266667z m36.266666-411.733333c0-19.2-17.066667-36.266667-36.266666-36.266667H238.933333c-19.2 0-36.266667 17.066667-36.266666 36.266667V379.733333c0 19.2 17.066667 36.266667 36.266666 36.266667h546.133334c19.2 0 36.266667-17.066667 36.266666-36.266667v-311.466666zM512 352c-17.066667 0-32-14.933333-32-32v-106.666667c0-17.066667 14.933333-32 32-32s32 14.933333 32 32v106.666667c0 17.066667-14.933333 32-32 32z"  horiz-adv-x="1024" />
      
      <glyph glyph-name="upload" unicode="&#59012;" d="M896 266.666667c-17.066667 0-32-14.933333-32-32v-170.666667c0-6.4-4.266667-10.666667-10.666667-10.666667H170.666667c-6.4 0-10.666667 4.266667-10.666667 10.666667v170.666667c0 17.066667-14.933333 32-32 32s-32-14.933333-32-32v-170.666667c0-40.533333 34.133333-74.666667 74.666667-74.666667h682.666666c40.533333 0 74.666667 34.133333 74.666667 74.666667v170.666667c0 17.066667-14.933333 32-32 32zM322.133333 488.533333l157.866667 157.866667V192c0-17.066667 14.933333-32 32-32s32 14.933333 32 32V648.533333l157.866667-157.866666c6.4-6.4 14.933333-8.533333 23.466666-8.533334s17.066667 2.133333 23.466667 8.533334c12.8 12.8 12.8 32 0 44.8l-213.333333 213.333333c-12.8 12.8-32 12.8-44.8 0l-213.333334-213.333333c-12.8-12.8-12.8-32 0-44.8 10.666667-12.8 32-12.8 44.8-2.133334z"  horiz-adv-x="1024" />
      
      <glyph glyph-name="warning" unicode="&#59013;" d="M934.4 125.866667L605.866667 714.666667C586.666667 748.8 550.4 768 512 768c-38.4 0-74.666667-21.333333-93.866667-53.333333L89.6 125.866667c-19.2-34.133333-19.2-76.8 0-110.933334S145.066667-42.666667 183.466667-42.666667h657.066666c38.4 0 74.666667 21.333333 93.866667 57.6 19.2 34.133333 19.2 76.8 0 110.933334z m-55.466667-81.066667c-8.533333-14.933333-23.466667-23.466667-38.4-23.466667H183.466667c-14.933333 0-29.866667 8.533333-38.4 23.466667-8.533333 14.933333-8.533333 34.133333 0 49.066667L473.6 682.666667c8.533333 12.8 23.466667 21.333333 38.4 21.333333s29.866667-8.533333 38.4-21.333333l328.533333-588.8c8.533333-14.933333 8.533333-32 0-49.066667zM512 149.333333m-42.666667 0a42.666667 42.666667 0 1 1 85.333334 0 42.666667 42.666667 0 1 1-85.333334 0ZM512 266.666667c17.066667 0 32 14.933333 32 32v192c0 17.066667-14.933333 32-32 32s-32-14.933333-32-32v-192c0-17.066667 14.933333-32 32-32z"  horiz-adv-x="1024" />
      
      <glyph glyph-name="zoom-in" unicode="&#59014;" d="M945.066667-2.133333l-189.866667 189.866666c55.466667 64 87.466667 149.333333 87.466667 241.066667 0 204.8-168.533333 373.333333-373.333334 373.333333S96 631.466667 96 426.666667 264.533333 53.333333 469.333333 53.333333c91.733333 0 174.933333 34.133333 241.066667 87.466667l189.866667-189.866667c6.4-6.4 14.933333-8.533333 23.466666-8.533333s17.066667 2.133333 23.466667 8.533333c8.533333 12.8 8.533333 34.133333-2.133333 46.933334zM469.333333 117.333333C298.666667 117.333333 160 256 160 426.666667S298.666667 736 469.333333 736 778.666667 597.333333 778.666667 426.666667 640 117.333333 469.333333 117.333333zM597.333333 458.666667H341.333333c-17.066667 0-32-14.933333-32-32s14.933333-32 32-32h256c17.066667 0 32 14.933333 32 32s-14.933333 32-32 32z"  horiz-adv-x="1024" />
      
      <glyph glyph-name="zoom-out" unicode="&#59015;" d="M945.066667-2.133333l-189.866667 189.866666c55.466667 64 87.466667 149.333333 87.466667 241.066667 0 204.8-168.533333 373.333333-373.333334 373.333333S96 631.466667 96 426.666667 264.533333 53.333333 469.333333 53.333333c91.733333 0 174.933333 34.133333 241.066667 87.466667l189.866667-189.866667c6.4-6.4 14.933333-8.533333 23.466666-8.533333s17.066667 2.133333 23.466667 8.533333c8.533333 12.8 8.533333 34.133333-2.133333 46.933334zM469.333333 117.333333C298.666667 117.333333 160 256 160 426.666667S298.666667 736 469.333333 736 778.666667 597.333333 778.666667 426.666667 640 117.333333 469.333333 117.333333zM597.333333 458.666667h-96V554.666667c0 17.066667-14.933333 32-32 32s-32-14.933333-32-32v-96H341.333333c-17.066667 0-32-14.933333-32-32s14.933333-32 32-32h96V298.666667c0-17.066667 14.933333-32 32-32s32 14.933333 32 32v96H597.333333c17.066667 0 32 14.933333 32 32s-14.933333 32-32 32z"  horiz-adv-x="1024" />
      
      <glyph glyph-name="caps-unlock-filling" unicode="&#59016;" d="M170.666667-32c-40.533333 0-74.666667 34.133333-74.666667 74.666667V725.333333c0 40.533333 34.133333 74.666667 74.666667 74.666667h682.666666c40.533333 0 74.666667-34.133333 74.666667-74.666667v-682.666666c0-40.533333-34.133333-74.666667-74.666667-74.666667H170.666667zM439.466667 170.666667h147.2c12.8 0 21.333333 6.4 21.333333 19.2v204.8h89.6c6.4 0 14.933333 6.4 17.066667 12.8 2.133333 6.4 0 14.933333-6.4 19.2l-183.466667 145.066666c-6.4 6.4-17.066667 6.4-23.466667 0L315.733333 426.666667c-4.266667-4.266667-6.4-8.533333-6.4-14.933334 0-2.133333 0-4.266667 2.133334-6.4 2.133333-6.4 8.533333-12.8 17.066666-12.8h91.733334v-204.8c0-10.666667 6.4-17.066667 19.2-17.066666z"  horiz-adv-x="1024" />
      
      <glyph glyph-name="clock-filling" unicode="&#59017;" d="M512 821.333333c241.066667 0 437.333333-196.266667 437.333333-437.333333S753.066667-53.333333 512-53.333333 74.666667 142.933333 74.666667 384 270.933333 821.333333 512 821.333333z m0-170.666666c-17.066667 0-32-14.933333-32-32V377.6c2.133333-10.666667 8.533333-21.333333 19.2-25.6l170.666667-81.066667 2.133333-2.133333c14.933333-6.4 32 2.133333 40.533333 17.066667l2.133334 2.133333c6.4 14.933333-2.133333 32-17.066667 40.533333l-151.466667 70.4V620.8c-4.266667 17.066667-17.066667 29.866667-34.133333 29.866667z"  horiz-adv-x="1024" />
      
      <glyph glyph-name="decline-filling" unicode="&#59018;" d="M635.733333 554.666667c19.2 0 32-12.8 32-29.866667v-236.8h155.733334c12.8 0 25.6-8.533333 27.733333-21.333333 2.133333-4.266667 2.133333-6.4 2.133333-10.666667 0-8.533333-6.4-19.2-12.8-25.6L529.066667-14.933333c-12.8-8.533333-27.733333-8.533333-40.533334 0L181.333333 232.533333c-8.533333 8.533333-12.8 21.333333-8.533333 34.133334 2.133333 12.8 14.933333 21.333333 27.733333 21.333333h151.466667V524.8c0 19.2 12.8 29.866667 34.133333 29.866667h249.6z m-6.4 128c17.066667 0 32-14.933333 32-32s-14.933333-32-32-32h-234.666666c-17.066667 0-32 14.933333-32 32s14.933333 32 32 32h234.666666z m0 106.666666c17.066667 0 32-14.933333 32-32S646.4 725.333333 629.333333 725.333333h-234.666666c-17.066667 0-32 14.933333-32 32S377.6 789.333333 394.666667 789.333333h234.666666z"  horiz-adv-x="1024" />
      
      <glyph glyph-name="dynamic-filling" unicode="&#59019;" d="M456.533333 840.533333c-12.8 4.266667-27.733333-2.133333-36.266666-12.8l-234.666667-362.666666c-6.4-10.666667-6.4-21.333333-2.133333-32 6.4-10.666667 17.066667-17.066667 27.733333-17.066667h234.666667c17.066667 0 32 14.933333 32 32V810.666667c2.133333 14.933333-6.4 27.733333-21.333334 29.866666zM810.666667 352H576c-17.066667 0-32-14.933333-32-32v-362.666667c0-14.933333 8.533333-25.6 23.466667-29.866666 2.133333 0 6.4-2.133333 8.533333-2.133334 10.666667 0 21.333333 4.266667 27.733333 14.933334l234.666667 362.666666c6.4 10.666667 6.4 21.333333 2.133333 32s-19.2 17.066667-29.866666 17.066667zM448 352H85.333333c-14.933333 0-27.733333-8.533333-29.866666-23.466667-4.266667-12.8 2.133333-27.733333 12.8-36.266666l362.666666-234.666667c4.266667-4.266667 10.666667-4.266667 17.066667-4.266667 4.266667 0 10.666667 2.133333 14.933333 4.266667 10.666667 6.4 17.066667 17.066667 17.066667 27.733333V320c0 17.066667-14.933333 32-32 32zM955.733333 475.733333l-362.666666 234.666667c-10.666667 6.4-21.333333 6.4-32 2.133333-10.666667-6.4-17.066667-17.066667-17.066667-27.733333v-234.666667c0-17.066667 14.933333-32 32-32h362.666667c14.933333 0 25.6 8.533333 29.866666 23.466667s0 25.6-12.8 34.133333z"  horiz-adv-x="1024" />
      
      <glyph glyph-name="help-filling" unicode="&#59020;" d="M512 821.333333c241.066667 0 437.333333-196.266667 437.333333-437.333333S753.066667-53.333333 512-53.333333 74.666667 142.933333 74.666667 384 270.933333 821.333333 512 821.333333zM512 192c-23.466667 0-42.666667-19.2-42.666667-42.666667s19.2-42.666667 42.666667-42.666666 42.666667 19.2 42.666667 42.666666-19.2 42.666667-42.666667 42.666667z m0 458.666667c-76.8 0-138.666667-61.866667-138.666667-138.666667 0-17.066667 14.933333-32 32-32s32 14.933333 32 32c0 40.533333 34.133333 74.666667 74.666667 74.666667s74.666667-34.133333 74.666667-74.666667c0-2.133333 0-6.4-2.133334-10.666667-6.4-14.933333-19.2-32-40.533333-51.2-10.666667-10.666667-21.333333-19.2-34.133333-27.733333-2.133333-2.133333-6.4-4.266667-8.533334-6.4l-6.4-4.266667c-8.533333-6.4-14.933333-17.066667-14.933333-27.733333v-108.8c2.133333-17.066667 14.933333-29.866667 32-29.866667h2.133333c17.066667 2.133333 29.866667 14.933333 29.866667 32v89.6l12.8 10.666667c10.666667 8.533333 19.2 17.066667 29.866667 25.6 27.733333 25.6 46.933333 49.066667 57.6 74.666667 4.266667 10.666667 6.4 23.466667 6.4 34.133333 0 76.8-61.866667 138.666667-138.666667 138.666667z"  horiz-adv-x="1024" />
      
      <glyph glyph-name="fullscreen-expand-filling" unicode="&#59021;" d="M396.8 755.2c-12.8 4.266667-25.6 2.133333-34.133333-6.4l-76.8-76.8-128 125.866667c-17.066667 17.066667-42.666667 17.066667-59.733334 0-17.066667-17.066667-17.066667-42.666667 0-59.733334l125.866667-125.866666-76.8-76.8c-8.533333-8.533333-12.8-23.466667-6.4-34.133334 4.266667-12.8 17.066667-19.2 29.866667-19.2h213.333333c17.066667 0 32 14.933333 32 32V725.333333c0 12.8-8.533333 25.6-19.2 29.866667zM800 157.866667l76.8 76.8c8.533333 8.533333 12.8 23.466667 6.4 34.133333s-17.066667 19.2-29.866667 19.2H640c-17.066667 0-32-14.933333-32-32v-213.333333c0-12.8 8.533333-25.6 19.2-29.866667 4.266667-2.133333 8.533333-2.133333 12.8-2.133333 8.533333 0 17.066667 4.266667 23.466667 8.533333l76.8 76.8 125.866666-125.866667c8.533333-8.533333 19.2-12.8 29.866667-12.8s21.333333 4.266667 29.866667 12.8c17.066667 17.066667 17.066667 42.666667 0 59.733334l-125.866667 128zM384 288H170.666667c-12.8 0-25.6-8.533333-29.866667-19.2-4.266667-12.8-2.133333-25.6 6.4-34.133333l76.8-76.8-125.866667-125.866667c-17.066667-17.066667-17.066667-42.666667 0-59.733333 8.533333-10.666667 19.2-14.933333 29.866667-14.933334s21.333333 4.266667 29.866667 12.8l125.866666 125.866667 76.8-76.8c6.4-6.4 14.933333-8.533333 23.466667-8.533333 4.266667 0 8.533333 0 12.8 2.133333 12.8 4.266667 19.2 17.066667 19.2 29.866667V256c0 17.066667-14.933333 32-32 32zM640 480h213.333333c12.8 0 25.6 8.533333 29.866667 19.2s2.133333 25.6-6.4 34.133333l-76.8 76.8 125.866667 125.866667c17.066667 17.066667 17.066667 42.666667 0 59.733333-17.066667 17.066667-42.666667 17.066667-59.733334 0l-125.866666-125.866666L663.466667 746.666667c-8.533333 8.533333-23.466667 12.8-34.133334 6.4-12.8-4.266667-19.2-17.066667-19.2-29.866667v-213.333333c-2.133333-14.933333 12.8-29.866667 29.866667-29.866667z"  horiz-adv-x="1024" />
      
      <glyph glyph-name="smile-filling" unicode="&#59022;" d="M512 821.333333c241.066667 0 437.333333-196.266667 437.333333-437.333333S753.066667-53.333333 512-53.333333 74.666667 142.933333 74.666667 384 270.933333 821.333333 512 821.333333z m206.933333-529.066666c-12.8 10.666667-34.133333 8.533333-44.8-4.266667-46.933333-57.6-100.266667-85.333333-162.133333-85.333333s-115.2 27.733333-162.133333 85.333333c-10.666667 12.8-32 14.933333-44.8 4.266667s-14.933333-32-4.266667-44.8c59.733333-70.4 130.133333-106.666667 211.2-106.666667s151.466667 36.266667 211.2 106.666667c10.666667 12.8 8.533333 32-4.266667 44.8zM362.666667 533.333333c-23.466667 0-42.666667-19.2-42.666667-42.666666v-66.133334c2.133333-21.333333 19.2-40.533333 42.666667-40.533333s42.666667 19.2 42.666666 42.666667v66.133333c-2.133333 23.466667-19.2 40.533333-42.666666 40.533333z m298.666666 0c-23.466667 0-42.666667-19.2-42.666666-42.666666v-66.133334c2.133333-21.333333 19.2-40.533333 42.666666-40.533333s42.666667 19.2 42.666667 42.666667v66.133333c-2.133333 23.466667-19.2 40.533333-42.666667 40.533333z"  horiz-adv-x="1024" />
      
      <glyph glyph-name="setting-filling" unicode="&#59023;" d="M550.4 821.333333c25.6 0 46.933333-19.2 53.333333-44.8l14.933334-85.333333 38.4-17.066667L727.466667 725.333333c19.2 14.933333 46.933333 12.8 66.133333-4.266666l2.133333-2.133334 53.333334-53.333333c19.2-19.2 21.333333-46.933333 6.4-68.266667l-49.066667-70.4 17.066667-38.4 85.333333-14.933333c23.466667-4.266667 42.666667-25.6 44.8-49.066667v-78.933333c0-25.6-19.2-46.933333-44.8-53.333333l-85.333333-14.933334-17.066667-38.4 49.066667-70.4c14.933333-19.2 12.8-46.933333-4.266667-66.133333l-2.133333-2.133333-53.333334-53.333334c-19.2-19.2-46.933333-21.333333-68.266666-6.4l-70.4 49.066667-38.4-17.066667-14.933334-85.333333c-4.266667-23.466667-25.6-42.666667-49.066666-44.8h-78.933334c-25.6 0-46.933333 19.2-53.333333 44.8l-14.933333 85.333333-38.4 17.066667-72.533334-46.933333c-19.2-14.933333-46.933333-12.8-66.133333 4.266666l-2.133333 2.133334-53.333334 53.333333c-19.2 19.2-21.333333 46.933333-6.4 68.266667l49.066667 70.4-17.066667 38.4-85.333333 14.933333c-23.466667 4.266667-42.666667 25.6-44.8 49.066667v78.933333c0 25.6 19.2 46.933333 44.8 53.333333l85.333333 14.933334 17.066667 38.4L170.666667 599.466667c-14.933333 19.2-12.8 46.933333 2.133333 64l2.133333 2.133333 53.333334 53.333333c19.2 19.2 46.933333 21.333333 68.266666 6.4l70.4-49.066666 38.4 17.066666 14.933334 85.333334c4.266667 23.466667 25.6 42.666667 49.066666 44.8H550.4z m-38.4-320c-64 0-117.333333-53.333333-117.333333-117.333333s53.333333-117.333333 117.333333-117.333333 117.333333 53.333333 117.333333 117.333333-53.333333 117.333333-117.333333 117.333333z"  horiz-adv-x="1024" />
      
      <glyph glyph-name="warning-filling" unicode="&#59024;" d="M934.4 125.866667L605.866667 714.666667C586.666667 748.8 550.4 768 512 768s-74.666667-21.333333-93.866667-53.333333L89.6 125.866667c-19.2-34.133333-19.2-76.8 0-110.933334S145.066667-42.666667 183.466667-42.666667h657.066666c40.533333 0 74.666667 21.333333 93.866667 57.6 19.2 34.133333 19.2 76.8 0 110.933334zM480 533.333333c0 17.066667 14.933333 32 32 32s29.866667-12.8 32-29.866666V256c0-17.066667-14.933333-32-32-32s-29.866667 12.8-32 29.866667V533.333333zM512 64c-23.466667 0-42.666667 19.2-42.666667 42.666667s19.2 42.666667 42.666667 42.666666 42.666667-19.2 42.666667-42.666666-19.2-42.666667-42.666667-42.666667z"  horiz-adv-x="1024" />
      
      <glyph glyph-name="map-filling" unicode="&#59025;" d="M512 821.333333c194.133333 0 352-160 352-354.133333 0-119.466667-64-236.8-168.533333-349.866667-36.266667-38.4-74.666667-72.533333-113.066667-104.533333-12.8-10.666667-25.6-21.333333-38.4-27.733333l-6.4-4.266667-8.533333-6.4c-10.666667-6.4-25.6-6.4-36.266667 0-2.133333 2.133333-4.266667 4.266667-8.533333 6.4l-12.8 8.533333c-8.533333 6.4-19.2 14.933333-29.866667 23.466667-38.4 32-76.8 66.133333-113.066667 104.533333-104.533333 110.933333-168.533333 230.4-168.533333 349.866667C160 661.333333 317.866667 821.333333 512 821.333333zM512 597.333333c-64 0-117.333333-53.333333-117.333333-117.333333S448 362.666667 512 362.666667s117.333333 53.333333 117.333333 117.333333S576 597.333333 512 597.333333z"  horiz-adv-x="1024" />
      
      <glyph glyph-name="prompt-filling" unicode="&#59026;" d="M512 821.333333c241.066667 0 437.333333-196.266667 437.333333-437.333333S753.066667-53.333333 512-53.333333 74.666667 142.933333 74.666667 384 270.933333 821.333333 512 821.333333z m0-341.333333c-17.066667 0-32-14.933333-32-32v-300.8c2.133333-17.066667 14.933333-29.866667 32-29.866667s32 14.933333 32 32V450.133333c-2.133333 17.066667-14.933333 29.866667-32 29.866667z m0 160c-23.466667 0-42.666667-19.2-42.666667-42.666667s19.2-42.666667 42.666667-42.666666 42.666667 19.2 42.666667 42.666666-19.2 42.666667-42.666667 42.666667z"  horiz-adv-x="1024" />
      
      <glyph glyph-name="os-icon-add" unicode="&#59046;" d="M554.656 426.656h298.656a42.656 42.656 0 0 0 0-85.312h-298.656v-298.656a42.656 42.656 0 0 0-85.312 0v298.656H170.688a42.656 42.656 0 0 0 0 85.312h298.656V725.312a42.656 42.656 0 0 0 85.312 0v-298.656z"  horiz-adv-x="1024" />
      
      <glyph glyph-name="os-icon-arrow-left" unicode="&#59052;" d="M371.008 384l297.696-301.6c18.592-18.848 18.592-49.408 0-68.256s-48.768-18.848-67.36 0L269.952 349.888a48.736 48.736 0 0 0 0 68.256L601.344 753.888c18.592 18.848 48.768 18.848 67.36 0s18.592-49.408 0-68.256l-297.696-301.6z"  horiz-adv-x="1024" />
      
      <glyph glyph-name="os-icon-arrow-right" unicode="&#59054;" d="M652.992 384l-297.696 301.6c-18.592 18.848-18.592 49.408 0 68.256s48.768 18.848 67.36 0l331.392-335.744a48.736 48.736 0 0 0 0-68.256L422.656 14.112c-18.592-18.848-48.768-18.848-67.36 0s-18.592 49.408 0 68.256l297.696 301.6z"  horiz-adv-x="1024" />
      
      </font>
</defs>
</svg>
